<svg width="21" height="29" viewBox="0 0 21 29" fill="none" xmlns="http://www.w3.org/2000/svg">
<path d="M20.2361 13.5687V6.7508C20.2361 5.83701 19.4953 5.09606 18.5814 5.09606C17.6676 5.09606 16.9266 5.83681 16.9266 6.7508V13.5687H16.6743V10.2534C16.6743 9.03318 15.6853 8.04412 14.465 8.04412C13.245 8.04412 12.2557 9.03318 12.2557 10.2534V13.5061C12.2557 13.5271 12.2581 13.5478 12.2587 13.5687H11.9614V9.45453C11.9614 8.23429 10.9724 7.24523 9.75211 7.24523C8.53206 7.24523 7.54281 8.23429 7.54281 9.45453V13.5063C7.54281 13.5273 7.5452 13.5478 7.5458 13.5687H7.29051V2.79536C7.29051 1.57512 6.30146 0.58606 5.08121 0.58606C3.86097 0.58606 2.87191 1.57512 2.87191 2.79536V13.5687V14.369H2.86873C2.70982 14.369 2.5543 14.3885 2.40496 14.4257C2.3054 14.4504 2.20862 14.4831 2.11543 14.5227C1.88225 14.6221 1.67118 14.7666 1.49456 14.9472C1.4392 15.0038 1.38842 15.0647 1.34024 15.128C1.30678 15.1718 1.27512 15.2172 1.24545 15.264C1.15385 15.4088 1.07938 15.5667 1.0282 15.7368L0.328076 18.059C0.163399 18.6052 0.0990835 19.1687 0.130944 19.7241C0.18411 20.6496 0.503904 21.5526 1.07042 22.3165L4.06786 26.5031C4.43903 26.8743 4.89443 27.1901 5.39424 27.4372C6.25785 27.9971 7.28693 28.3235 8.39288 28.3235H14.7151C17.7641 28.3235 20.2359 25.8518 20.2359 22.8027V13.5689L20.2361 13.5687Z" fill="white"/>
</svg>
