<svg width="14" height="12" viewBox="0 0 14 12" fill="none" xmlns="http://www.w3.org/2000/svg">
<path d="M7 3.06667C7 4.28169 6.18347 5.5 5 5.5C3.81653 5.5 3 4.28169 3 3.06667C3 1.85164 3.21429 0.5 5 0.5C6.78571 0.5 7 1.85164 7 3.06667Z" fill="#B6BAC6"/>
<path d="M0 11.5C8.34465e-07 7.83333 1.11111 7 5 7C8.88889 7 10 7.83333 10 11.5L0 11.5Z" fill="#B6BAC6"/>
<path d="M8.40967 5.3755C8.51361 5.40651 8.61656 5.44008 8.71835 5.4764C8.80965 5.49191 8.90363 5.5 9.00004 5.5C10.1835 5.5 11 4.28169 11 3.06667C11 1.85164 10.7858 0.5 9.00004 0.5C8.82282 0.5 8.66108 0.513312 8.5135 0.538481C8.96878 1.46655 9.00001 2.47169 9.00001 3.06667C9.00001 3.86529 8.7963 4.67101 8.40967 5.3755Z" fill="#B6BAC6"/>
<path d="M14 11.5H12C12 9.95058 11.834 8.34672 10.9446 7.1063C13.2746 7.42442 14 8.5373 14 11.5Z" fill="#B6BAC6"/>
</svg>
