<svg width="161" height="26" viewBox="0 0 161 26" fill="none" xmlns="http://www.w3.org/2000/svg">
<path d="M50.171 8.06494C50.1064 8.35284 50.0276 8.75403 49.9358 9.26821C49.8433 9.78301 49.7818 10.1817 49.7491 10.4649C48.5924 10.6215 47.5602 10.6999 46.652 10.6999C45.7763 10.6999 44.9613 10.601 44.2073 10.4024C43.4515 10.2034 42.7463 9.87186 42.1318 9.42663C41.5022 8.97377 41.0517 8.44186 40.7818 7.83026C40.5115 7.21866 40.3764 6.53361 40.3764 5.77511C40.3764 4.88962 40.5586 4.09345 40.9238 3.38631C41.2799 2.68906 41.8199 2.08175 42.4963 1.61781C43.1669 1.15145 43.9312 0.807484 44.7468 0.605023C45.5709 0.400843 46.4217 0.298347 47.2761 0.300314C48.0759 0.300314 49.0652 0.393065 50.2436 0.579189L50.2597 1.19577C50.2704 1.46468 50.2869 1.76067 50.3089 2.08375L50.3653 2.92068C49.733 2.78343 49.221 2.69067 48.829 2.64181C48.4677 2.59492 48.1033 2.57037 47.7383 2.56835C47.0086 2.56835 46.3522 2.70063 45.768 2.96457C45.195 3.21983 44.7162 3.62022 44.3898 4.11711C44.0542 4.62101 43.8871 5.17876 43.8871 5.79036C43.8871 6.34811 44.0274 6.82618 44.3087 7.2252C44.5896 7.6239 44.9699 7.93204 45.4479 8.1496C45.9262 8.36778 46.5166 8.4764 47.2194 8.4764C47.6031 8.4764 48.0206 8.44808 48.472 8.39206C48.9235 8.33572 49.4899 8.22647 50.171 8.06494V8.06494ZM54.8931 10.5091C54.9468 10.1129 55.0121 9.44002 55.0874 8.49103C55.1634 7.54174 55.2009 6.87131 55.2009 6.47977L51.488 0.491107C52.3029 0.501067 52.9758 0.505735 53.505 0.505735C54.0129 0.505735 54.6205 0.501067 55.3278 0.491107C55.544 0.980384 55.837 1.56335 56.2077 2.24093C56.5777 2.91851 56.8792 3.52388 57.1117 4.05673C57.733 3.06417 58.2323 2.2901 58.6109 1.73484C58.9888 1.17958 59.259 0.765002 59.421 0.491107C60.1077 0.501067 60.7685 0.505735 61.4019 0.505735C61.7372 0.505735 62.3458 0.501067 63.2284 0.491107L59.6686 5.23946C58.9602 6.18844 58.6064 6.68519 58.6064 6.72939L58.5988 6.80284V6.87629L58.5906 6.94975L58.5338 8.06525C58.496 8.80414 58.4664 9.61867 58.4448 10.5095C57.6828 10.4995 57.0934 10.4945 56.677 10.4945C56.2496 10.4942 55.6555 10.4992 54.8931 10.5091ZM64.1235 10.5091C64.2363 9.43255 64.3119 8.58596 64.3501 7.9697C64.4037 7.12809 64.4567 5.97337 64.5079 4.50585C64.5588 3.03771 64.5849 2.00313 64.5849 1.40119C64.5849 1.18612 64.5818 0.882653 64.5767 0.491418C65.296 0.506047 65.8661 0.513517 66.2877 0.513517C66.8771 0.513517 67.5637 0.502312 68.3474 0.480213C69.1313 0.458426 69.8039 0.447221 70.3661 0.447221C71.0421 0.447221 71.5232 0.464651 71.8096 0.498577C72.1878 0.542774 72.519 0.621207 72.803 0.733567C73.0863 0.845926 73.3236 0.985364 73.5127 1.15188C73.728 1.35445 73.8961 1.59407 74.0072 1.85654C74.1437 2.17719 74.2122 2.51824 74.2094 2.86186C74.2094 3.14073 74.1705 3.40747 74.0924 3.66176C74.0207 3.90212 73.9085 4.13107 73.7599 4.34058C73.6278 4.52704 73.465 4.69414 73.2772 4.83608C73.1172 4.95738 72.9417 5.06083 72.7545 5.14422C72.584 5.21767 72.3556 5.29112 72.0689 5.36458C72.3556 5.40846 72.5853 5.45889 72.7586 5.51491C72.9313 5.57125 73.1166 5.66182 73.314 5.78632C73.5193 5.91864 73.6986 6.08118 73.8445 6.26719C74.0031 6.46598 74.1224 6.68819 74.197 6.92391C74.2757 7.16606 74.3153 7.42191 74.3153 7.69082C74.3179 8.04896 74.2492 8.40458 74.1124 8.74065C73.9766 9.06839 73.7881 9.34976 73.545 9.58444C73.3394 9.7855 73.0715 9.95637 72.7418 10.0983C72.4127 10.2402 72.0744 10.3376 71.7281 10.3918C71.4475 10.431 70.9349 10.4603 70.1921 10.4802C69.4487 10.4995 68.661 10.5095 67.8282 10.5095L65.6963 10.502L64.1235 10.5091V10.5091ZM67.5496 8.49788H69.108C69.5189 8.49788 69.8218 8.47609 70.0171 8.4319C70.2547 8.37836 70.4363 8.3074 70.5604 8.21932C70.6849 8.13092 70.7839 8.0114 70.8568 7.85952C70.9316 7.6995 70.9688 7.52716 70.9661 7.35343C70.9661 7.19159 70.9366 7.04997 70.8767 6.92765C70.8182 6.806 70.7262 6.69994 70.6096 6.61952C70.4906 6.5361 70.3445 6.47634 70.1722 6.43931C69.9989 6.40258 69.7283 6.38422 69.3607 6.38422H67.6497L67.5496 8.49788V8.49788ZM67.7353 4.39536H68.8886C69.2672 4.39536 69.5368 4.38696 69.6963 4.36984C69.8547 4.35293 70.011 4.32218 70.1629 4.27802C70.3122 4.23512 70.4476 4.15953 70.557 4.05797C70.668 3.95495 70.7464 3.8401 70.7925 3.71311C70.8386 3.58613 70.8616 3.45883 70.8616 3.33122C70.8616 3.15038 70.8138 2.98885 70.7196 2.84692C70.625 2.70499 70.472 2.59979 70.2616 2.53132C70.0508 2.46284 69.7293 2.42829 69.2964 2.42829H67.8371L67.7353 4.39536V4.39536ZM76.694 10.5091C76.8292 9.24642 76.9285 8.18975 76.9908 7.33818C77.0527 6.48693 77.1149 5.35555 77.1775 3.94406C77.2401 2.53256 77.2707 1.59665 77.2707 1.13694L77.2628 0.491107C78.5381 0.501067 80.0806 0.505735 81.892 0.505735C83.5614 0.505735 85.0345 0.501067 86.3098 0.491107L86.2937 0.732322C86.2882 0.790836 86.2748 1.0031 86.2534 1.36882L86.2043 2.16623C86.1935 2.33921 86.1881 2.51244 86.1881 2.68569C85.1452 2.64648 84.2694 2.62687 83.5607 2.62687C82.7823 2.62687 82.2572 2.62811 81.9838 2.63029C81.7112 2.63309 81.2855 2.64368 80.7071 2.66328L80.6091 4.35117C81.3522 4.36693 82.0954 4.3743 82.8387 4.37326C83.1416 4.37326 83.9476 4.35615 85.2549 4.3216C85.202 4.94813 85.15 5.69419 85.1012 6.56007C84.3828 6.5516 83.6644 6.54672 82.9459 6.54544C82.2005 6.54544 81.3656 6.56256 80.4424 6.5968L80.3457 8.38023H81.2779C81.5533 8.38023 82.1228 8.37276 82.9872 8.35813L84.6649 8.3214C84.9135 8.31705 85.3292 8.29713 85.9127 8.26289C85.8461 9.01076 85.7919 9.75949 85.7501 10.5088C84.4317 10.4989 82.9851 10.4939 81.4124 10.4939L77.8449 10.5011L76.694 10.5091V10.5091ZM88.4624 10.5091C88.5652 9.64762 88.6463 8.87231 88.7061 8.18259C88.766 7.49256 88.8169 6.69266 88.8605 5.78258C88.9035 4.8725 88.9358 3.91231 88.9578 2.90201C88.9795 1.89171 88.9902 1.08807 88.9902 0.491107C89.6658 0.505735 90.2119 0.513205 90.6283 0.513205C91.0608 0.513205 91.588 0.502001 92.2093 0.479902C92.8306 0.458115 93.4362 0.44691 94.0252 0.44691C94.717 0.44691 95.3335 0.471499 95.8734 0.520364C96.2791 0.554912 96.6477 0.625876 96.9802 0.733567C97.3128 0.841257 97.592 0.97198 97.8189 1.12605C98.036 1.27149 98.2273 1.44603 98.3863 1.64365C98.5372 1.83444 98.6548 2.05854 98.7387 2.31531C98.8226 2.57209 98.8649 2.84723 98.8649 3.14073C98.8649 3.46847 98.8185 3.77567 98.7267 4.06171C98.6345 4.34774 98.4901 4.61697 98.2927 4.86908C98.0954 5.12118 97.8468 5.33874 97.5466 5.52207C97.2471 5.70539 96.8266 5.89276 96.286 6.08355L96.7079 7.01573C96.8269 7.275 96.9531 7.53956 97.0886 7.80847L98.1751 9.95886C98.2236 10.0516 98.3103 10.2352 98.4344 10.5095C97.835 10.5018 97.2355 10.4968 96.636 10.4945C96.2472 10.4945 95.61 10.4995 94.7239 10.5095C94.6372 10.2552 94.4801 9.78301 94.2532 9.09267C94.1834 8.86754 94.1047 8.64475 94.0173 8.42474C93.8876 8.07739 93.6947 7.5906 93.441 6.96438L92.6047 4.88744C92.897 4.93631 93.1831 4.96089 93.4644 4.96089C93.8584 4.96089 94.2171 4.90705 94.5382 4.79936C94.8601 4.69167 95.1032 4.52546 95.2682 4.30012C95.4329 4.07509 95.5154 3.83792 95.5154 3.58799C95.5154 3.3779 95.4529 3.19302 95.3294 3.03398C95.2046 2.87493 95.0089 2.75635 94.7411 2.67791C94.4739 2.59948 94.0613 2.56026 93.5046 2.56026C93.3151 2.56026 93.1191 2.564 92.9163 2.57147C92.7134 2.57863 92.4779 2.58485 92.2069 2.58983C92.1378 3.59297 92.0766 4.81616 92.0236 6.25941C91.9705 7.67546 91.9358 9.09204 91.9194 10.5088C91.3323 10.5014 90.7451 10.4964 90.1579 10.4939C89.845 10.4942 89.279 10.4992 88.4624 10.5091V10.5091ZM100.846 10.3548C100.776 9.31241 100.695 8.47858 100.603 7.85205C101.21 8.097 101.749 8.26694 102.224 8.36249C102.696 8.45773 103.113 8.50504 103.47 8.50504C103.942 8.50504 104.316 8.44248 104.595 8.31798C104.874 8.19317 105.013 8.0086 105.013 7.76365C105.013 7.68055 105 7.60118 104.973 7.52524C104.946 7.44961 104.894 7.3637 104.819 7.26846C104.743 7.17291 104.635 7.06896 104.494 6.9566L102.966 5.75301C102.609 5.47912 102.359 5.28054 102.218 5.15853C101.932 4.90923 101.708 4.67673 101.548 4.46135C101.389 4.24596 101.272 4.02716 101.199 3.80462C101.126 3.58208 101.09 3.34584 101.09 3.09623C101.09 2.79805 101.147 2.50548 101.264 2.21914C101.38 1.93279 101.555 1.66512 101.787 1.4155C102.019 1.16589 102.327 0.950504 102.712 0.769671C103.098 0.587675 103.514 0.462542 103.943 0.398979C104.391 0.332287 104.844 0.299182 105.298 0.300003C106.21 0.300003 107.206 0.395555 108.282 0.586348C108.298 0.923737 108.317 1.23343 108.338 1.51448C108.36 1.79585 108.411 2.28886 108.492 2.9932C107.994 2.81237 107.541 2.68632 107.13 2.61535C106.719 2.54439 106.365 2.50891 106.068 2.50891C105.645 2.50891 105.296 2.57987 105.017 2.7218C104.739 2.86373 104.6 3.03989 104.6 3.25029C104.6 3.34802 104.621 3.44358 104.665 3.53633C104.708 3.62939 104.789 3.73801 104.908 3.86282C105.027 3.98763 105.184 4.12458 105.378 4.27398C105.679 4.50035 105.984 4.72179 106.294 4.93817L106.878 5.35649C107.051 5.48379 107.237 5.63785 107.437 5.81868C107.624 5.98631 107.797 6.16539 107.957 6.35465C108.102 6.5305 108.215 6.69235 108.293 6.83926C108.371 6.98585 108.429 7.13401 108.467 7.28309C108.505 7.43249 108.524 7.59278 108.524 7.76365C108.524 8.20406 108.407 8.62393 108.175 9.02264C107.943 9.42136 107.603 9.75982 107.186 10.0059C106.758 10.2634 106.281 10.4464 105.779 10.5456C105.248 10.6501 104.706 10.7017 104.162 10.6996C103.286 10.6999 102.181 10.5848 100.846 10.3548ZM110.985 10.5091L111.145 8.63016L111.355 4.96058L111.443 2.36231C111.449 2.08344 111.451 1.80456 111.451 1.52568C111.451 1.31528 111.449 0.970424 111.443 0.490796C112.157 0.505424 112.73 0.512894 113.163 0.512894C113.58 0.512894 114.15 0.501689 114.875 0.479591C115.488 0.459612 116.102 0.448613 116.716 0.446599C117.44 0.446599 117.977 0.488306 118.326 0.571408C118.664 0.650273 118.984 0.783303 119.27 0.964199C119.542 1.13415 119.779 1.34662 119.968 1.59167C120.157 1.84107 120.296 2.11783 120.381 2.40993C120.474 2.71588 120.519 3.02775 120.519 3.34584C120.519 4.00133 120.344 4.60047 119.992 5.14391C119.641 5.68703 119.146 6.09289 118.509 6.36243C117.871 6.63134 117.154 6.76611 116.36 6.76611C116.068 6.76611 115.73 6.73655 115.346 6.67772C115.303 6.45269 115.222 6.11779 115.103 5.6724C114.984 5.22732 114.887 4.89709 114.811 4.68171C115.049 4.7259 115.298 4.74769 115.557 4.74769C116.103 4.74769 116.51 4.62911 116.778 4.39194C117.045 4.15477 117.179 3.865 117.179 3.52232C117.179 3.3558 117.149 3.20796 117.09 3.07817C117.031 2.94933 116.932 2.83857 116.806 2.75915C116.678 2.67661 116.531 2.62138 116.376 2.59761C116.199 2.57181 116.02 2.55952 115.841 2.56089C115.646 2.56089 115.444 2.56586 115.233 2.57551L114.552 2.61971C114.477 3.66825 114.423 4.71794 114.391 5.76826C114.321 7.87228 114.287 9.13438 114.287 9.55518V10.5091L112.672 10.4942C112.445 10.4942 111.882 10.4992 110.985 10.5091V10.5091ZM129.077 0.300314C129.942 0.300314 130.774 0.405515 131.574 0.615916C132.374 0.826318 133.074 1.16277 133.674 1.62497C134.274 2.08748 134.722 2.6194 135.02 3.22104C135.317 3.82329 135.466 4.5155 135.466 5.29797C135.466 6.12028 135.302 6.87474 134.975 7.56197C134.659 8.23619 134.175 8.83522 133.561 9.31241C132.944 9.79204 132.209 10.1431 131.355 10.3657C130.488 10.5902 129.59 10.7027 128.688 10.6999C127.774 10.6999 126.898 10.5907 126.06 10.3731C125.223 10.1556 124.494 9.80324 123.875 9.31614C123.256 8.82936 122.817 8.28717 122.557 7.6902C122.299 7.09354 122.168 6.43059 122.168 5.70135C122.168 4.63004 122.443 3.68946 122.992 2.8796C123.54 2.06974 124.354 1.43729 125.433 0.982251C126.51 0.527834 127.725 0.300314 129.077 0.300314V0.300314ZM128.931 2.50922C128.309 2.50922 127.747 2.64741 127.244 2.92411C126.741 3.2008 126.355 3.58457 126.085 4.07634C125.814 4.56759 125.675 5.10936 125.679 5.65808C125.679 6.17693 125.802 6.65126 126.048 7.08172C126.295 7.51248 126.669 7.84893 127.171 8.09108C127.662 8.33041 128.211 8.45525 128.768 8.45431C129.369 8.45431 129.919 8.31829 130.418 8.04689C130.919 7.77548 131.3 7.39358 131.562 6.90182C131.824 6.41005 131.955 5.89525 131.955 5.35711C131.955 4.83359 131.833 4.35054 131.59 3.90764C131.357 3.47399 130.984 3.1145 130.52 2.87649C130.05 2.63185 129.52 2.50922 128.931 2.50922V2.50922ZM137.577 10.5091C137.68 9.64762 137.761 8.87231 137.821 8.18259C137.88 7.49256 137.932 6.69266 137.975 5.78258C138.019 4.8725 138.052 3.91231 138.073 2.90201C138.094 1.89171 138.105 1.08807 138.105 0.491107C138.781 0.505735 139.327 0.513205 139.743 0.513205C140.175 0.513205 140.702 0.502001 141.324 0.479902C141.946 0.458115 142.551 0.44691 143.14 0.44691C143.831 0.44691 144.448 0.471499 144.989 0.520364C145.394 0.554912 145.763 0.625876 146.095 0.733567C146.427 0.841257 146.707 0.97198 146.934 1.12605C147.151 1.27132 147.343 1.44589 147.501 1.64365C147.652 1.83444 147.77 2.05854 147.854 2.31531C147.938 2.57209 147.979 2.84723 147.979 3.14073C147.979 3.46847 147.933 3.77567 147.842 4.06171C147.75 4.34774 147.605 4.61697 147.408 4.86908C147.21 5.12118 146.962 5.33874 146.662 5.52207C146.361 5.70539 145.941 5.89276 145.401 6.08355L145.822 7.01573C145.941 7.275 146.069 7.53956 146.204 7.80847L147.29 9.95886C147.339 10.0516 147.425 10.2352 147.55 10.5095C146.95 10.5018 146.351 10.4968 145.751 10.4945C145.362 10.4945 144.725 10.4995 143.839 10.5095C143.752 10.2552 143.595 9.78301 143.368 9.09267C143.298 8.86747 143.22 8.64468 143.132 8.42474C143.002 8.07739 142.811 7.5906 142.556 6.96438L141.719 4.88744C142.011 4.93631 142.298 4.96089 142.579 4.96089C142.974 4.96089 143.331 4.90705 143.653 4.79936C143.975 4.69167 144.218 4.52546 144.383 4.30012C144.548 4.07509 144.631 3.83792 144.631 3.58799C144.631 3.3779 144.568 3.19302 144.444 3.03398C144.32 2.87493 144.124 2.75635 143.856 2.67791C143.589 2.59948 143.176 2.56026 142.62 2.56026C142.43 2.56026 142.234 2.564 142.031 2.57147C141.829 2.57863 141.592 2.58485 141.322 2.58983C141.252 3.59297 141.192 4.81616 141.138 6.25941C141.085 7.67547 141.051 9.09204 141.035 10.5088C140.447 10.5014 139.86 10.4964 139.272 10.4939C138.959 10.4942 138.394 10.4992 137.577 10.5091V10.5091ZM152.523 10.5091C152.792 8.13092 152.953 5.51366 153.007 2.65613L149.556 2.73705L149.596 1.92221C149.618 1.48709 149.634 1.00995 149.645 0.491107C151.18 0.501067 152.969 0.506047 155.011 0.506047L157.013 0.498577H158.958L160.011 0.491107L159.963 1.20977C159.944 1.52844 159.93 1.84728 159.919 2.16623C159.911 2.41833 159.906 2.60851 159.906 2.73674C158.75 2.68289 157.798 2.65581 157.047 2.65581H156.48C156.404 3.45345 156.341 4.2521 156.292 5.05147C156.234 6.07041 156.187 7.0899 156.153 8.10976C156.125 8.9092 156.109 9.70897 156.105 10.5088C155.532 10.5014 154.959 10.4964 154.386 10.4939C154.155 10.4942 153.534 10.4992 152.523 10.5091V10.5091Z" fill="white"/>
<path fill-rule="evenodd" clip-rule="evenodd" d="M26.4626 2.23014C25.8455 2.28876 25.3019 2.35932 24.7582 2.38915C21.8557 2.55414 18.9528 2.70157 16.051 2.86796C12.9664 3.04523 9.88027 3.21373 6.79878 3.42997C5.21761 3.54089 3.99193 4.81058 3.97922 6.40568C3.94392 10.8835 3.94392 15.3598 3.98134 19.8376C3.99476 21.4071 5.28186 22.7059 6.82455 22.8003C12.3729 23.1387 17.922 23.4511 23.4715 23.7755C24.4518 23.8338 25.4304 23.9012 26.5342 23.9724C26.1223 24.856 25.4921 25.2625 24.7102 25.3081C23.5869 25.3741 22.4541 25.3446 21.3272 25.299C18.215 25.1747 15.1039 25.0227 11.992 24.8802C9.13611 24.7493 6.27914 24.6306 3.42322 24.4825C1.63448 24.3884 0.344905 22.953 0.340316 21.0504C0.328666 16.3427 0.335021 11.6368 0.335021 6.92942C0.335021 6.30914 0.325136 5.68957 0.33961 5.07035C0.385149 3.10386 1.74603 1.79872 3.72752 1.72219C8.22321 1.54913 12.7168 1.35009 17.21 1.1472C19.4213 1.04786 21.6287 0.91025 23.8397 0.802834C25.0851 0.741754 26.0785 1.25777 26.4626 2.23014V2.23014ZM27.6173 0.313845C29.758 0.0530273 33.3094 1.76396 33.327 4.80391C33.3581 10.3387 33.375 15.8755 33.3168 21.4085C33.2938 23.528 31.9238 24.7886 30.0581 25.5268C29.3499 25.8069 28.5705 25.9059 27.7822 26C29.4082 24.5341 29.6666 22.6529 29.6687 20.6864C29.6733 15.5417 29.6842 10.3969 29.6563 5.25183C29.6514 4.43568 29.5127 3.60619 29.3252 2.80934C29.0957 1.83557 28.6541 0.949215 27.6173 0.313845V0.313845Z" fill="white"/>
<path fill-rule="evenodd" clip-rule="evenodd" d="M19.3987 10.9467C19.3987 11.0433 19.3796 11.139 19.3425 11.2283C19.3053 11.3176 19.2508 11.3988 19.1821 11.4672C19.1134 11.5355 19.0318 11.5897 18.942 11.6267C18.8522 11.6637 18.7559 11.6828 18.6587 11.6828H14.174C14.0768 11.6828 13.9805 11.6638 13.8907 11.6268C13.8009 11.5899 13.7193 11.5356 13.6506 11.4673C13.5818 11.3989 13.5274 11.3177 13.4902 11.2284C13.4531 11.1391 13.434 11.0433 13.4341 10.9467V7.94217C13.4341 7.53532 13.7649 7.2057 14.174 7.2057L18.682 6.94208C19.0912 6.94208 19.4223 7.27064 19.4223 7.67784L19.3987 10.9467V10.9467ZM19.4227 18.4658C19.4227 18.5624 19.4035 18.6582 19.3663 18.7474C19.3291 18.8367 19.2746 18.9179 19.2058 18.9862C19.1371 19.0545 19.0555 19.1087 18.9657 19.1457C18.8759 19.1826 18.7796 19.2016 18.6824 19.2016L14.1744 19.0404C14.0771 19.0405 13.9809 19.0215 13.8911 18.9845C13.8013 18.9475 13.7196 18.8933 13.6509 18.8249C13.5822 18.7565 13.5277 18.6754 13.4906 18.586C13.4534 18.4967 13.4343 18.401 13.4344 18.3043V15.2998C13.4344 14.8926 13.7652 14.5637 14.1744 14.5637L18.6824 14.6543C19.0915 14.6543 19.4227 14.9828 19.4227 15.3897V18.4658V18.4658Z" fill="white"/>
<path d="M41.2197 24.9699C41.1563 23.936 41.083 23.1093 41 22.4884C41.5483 22.7306 42.0362 22.8994 42.4648 22.9942C42.8931 23.0889 43.2689 23.1358 43.5922 23.1358C44.0177 23.1358 44.3568 23.0741 44.6088 22.9504C44.8609 22.8266 44.9868 22.6436 44.9868 22.4007C44.9868 22.3186 44.9746 22.2396 44.9501 22.1643C44.9258 22.0896 44.8789 22.0042 44.8108 21.9097C44.7418 21.815 44.6443 21.7119 44.5171 21.6002L43.1365 20.4071C42.8133 20.1356 42.5882 19.939 42.4608 19.8177C42.2013 19.5702 41.9996 19.3403 41.855 19.1264C41.717 18.9267 41.6104 18.7072 41.5389 18.4756C41.4719 18.2474 41.4385 18.0108 41.4398 17.7732C41.4398 17.4775 41.4923 17.1877 41.5977 16.9038C41.707 16.6127 41.867 16.343 42.0704 16.107C42.2805 15.8595 42.559 15.6462 42.9059 15.4669C43.2552 15.2865 43.6312 15.1623 44.0198 15.0991C44.4244 15.0329 44.8338 15.0001 45.2438 15.001C46.0696 15.001 46.9688 15.096 47.941 15.2852C47.9559 15.6194 47.9727 15.9268 47.9926 16.2054C48.0119 16.4841 48.0585 16.9729 48.1315 17.6716C47.6821 17.4923 47.2712 17.3673 46.9001 17.297C46.529 17.2266 46.2086 17.1911 45.9403 17.1911C45.559 17.1911 45.2426 17.2615 44.9908 17.4028C44.7394 17.5433 44.6135 17.7179 44.6135 17.9262C44.6135 18.0234 44.6331 18.1179 44.6719 18.2098C44.7111 18.3024 44.7841 18.4098 44.8917 18.5339C44.9992 18.6579 45.1412 18.7937 45.3168 18.9416C45.4928 19.0894 45.7685 19.3088 46.1448 19.5998L46.6726 20.0149C46.8286 20.1414 46.9977 20.2936 47.1783 20.4732C47.3472 20.639 47.5039 20.8166 47.6473 21.0046C47.7794 21.1793 47.8807 21.3394 47.9516 21.4851C48.0224 21.6308 48.075 21.777 48.1092 21.9252C48.1434 22.0733 48.1604 22.2322 48.1604 22.4016C48.1607 22.8373 48.0526 23.2662 47.8456 23.6503C47.6354 24.0452 47.3276 24.3807 46.9511 24.6252C46.5644 24.8803 46.1332 25.0616 45.6796 25.16C45.1993 25.2636 44.709 25.3149 44.2175 25.3127C43.4259 25.3121 42.4266 25.1979 41.2197 24.9699V24.9699ZM59.0177 22.6995C58.9389 23.0957 58.868 23.4935 58.8051 23.8925C58.7218 24.403 58.6655 24.7983 58.6363 25.0791C57.591 25.2344 56.6574 25.3121 55.8362 25.3121C55.0452 25.3121 54.3083 25.214 53.627 25.0171C52.9438 24.8197 52.3063 24.4909 51.7506 24.0496C51.1818 23.6006 50.7747 23.0732 50.5307 22.4668C50.2861 21.86 50.1642 21.1811 50.1642 20.4287C50.1642 19.5511 50.329 18.7616 50.6587 18.0602C50.9888 17.3593 51.4625 16.7745 52.0804 16.3064C52.6983 15.8382 53.3765 15.5034 54.1143 15.3022C54.8593 15.0997 55.6283 14.9981 56.4006 15C57.1236 15 58.0178 15.0926 59.0832 15.2768L59.0982 15.8876C59.1075 16.1545 59.1224 16.448 59.1417 16.7683L59.1933 17.5979C58.6217 17.4621 58.1589 17.3698 57.8043 17.3214C57.4778 17.2747 57.1485 17.2504 56.8187 17.2485C56.1591 17.2485 55.5655 17.3794 55.0377 17.6414C54.5199 17.8945 54.0872 18.2914 53.792 18.7839C53.4887 19.2835 53.3373 19.8365 53.3373 20.4429C53.3373 20.9959 53.4644 21.47 53.7187 21.8656C53.9726 22.2609 54.316 22.5664 54.7487 22.7822C55.181 22.9985 55.7144 23.1062 56.3494 23.1062C56.6962 23.1062 57.0736 23.0781 57.482 23.0226C57.89 22.9676 58.402 22.8596 59.0177 22.6995V22.6995ZM67.2212 15.0003C68.0032 15.0003 68.7553 15.105 69.4786 15.3136C70.2015 15.5222 70.8347 15.8555 71.3767 16.3141C71.9188 16.7724 72.3244 17.2998 72.5932 17.8969C72.8621 18.4938 72.9964 19.1801 72.9964 19.9559C72.9964 20.7713 72.8481 21.5193 72.5531 22.2007C72.2674 22.8695 71.8296 23.4635 71.2742 23.9364C70.7175 24.4119 70.0527 24.76 69.2806 24.981C68.4965 25.2034 67.6848 25.3149 66.8694 25.3121C66.0435 25.3121 65.2522 25.2038 64.4951 24.9881C63.7373 24.7724 63.079 24.423 62.5199 23.9401C61.9601 23.4574 61.5632 22.9198 61.3289 22.3279C61.0942 21.7363 60.9767 21.079 60.9767 20.3556C60.9767 19.2937 61.225 18.3611 61.7211 17.5581C62.2168 16.7551 62.9522 16.128 63.9272 15.6771C64.9016 15.2259 66 15.0003 67.2212 15.0003V15.0003ZM67.0894 17.1905C66.5272 17.1905 66.0193 17.3275 65.5649 17.6022C65.1108 17.8759 64.7611 18.2571 64.5168 18.744C64.2727 19.2312 64.1471 19.7685 64.1504 20.3127C64.1504 20.8268 64.2613 21.2971 64.4836 21.7239C64.7061 22.1511 65.0449 22.4847 65.499 22.7245C65.9427 22.962 66.439 23.0859 66.943 23.0849C67.4851 23.0849 67.9824 22.95 68.4346 22.6806C68.8862 22.4118 69.2309 22.0332 69.468 21.5453C69.7023 21.0682 69.8237 20.5444 69.823 20.0137C69.823 19.4946 69.713 19.0159 69.4932 18.5768C69.2819 18.147 68.9449 17.7906 68.5263 17.5541C68.1005 17.3121 67.6218 17.1905 67.0894 17.1905V17.1905ZM74.9047 25.1226C74.9977 24.2684 75.0716 23.4997 75.1257 22.8155C75.1792 22.1316 75.2258 21.3385 75.2646 20.4358C75.3041 19.5335 75.3333 18.5817 75.3532 17.5797C75.3728 16.5782 75.3824 15.7811 75.3824 15.1892C75.9932 15.204 76.4868 15.2114 76.8625 15.2114C77.2535 15.2114 77.73 15.2 78.2923 15.1784C78.8539 15.1568 79.4006 15.1457 79.9336 15.1457C80.5584 15.1457 81.1156 15.1704 81.6042 15.2182C81.9704 15.2528 82.3042 15.3231 82.6041 15.4299C82.9047 15.5367 83.1577 15.6666 83.3628 15.8188C83.5591 15.963 83.732 16.1362 83.8756 16.3323C84.0121 16.5215 84.1184 16.743 84.1942 16.9979C84.2701 17.2525 84.3077 17.5254 84.3077 17.8164C84.3077 18.1413 84.2657 18.4456 84.1833 18.7298C84.0986 19.0166 83.966 19.2872 83.7911 19.5304C83.6075 19.785 83.379 20.0044 83.1166 20.1781C82.8453 20.3599 82.4652 20.5451 81.9772 20.7346L82.358 21.6591C82.4655 21.9162 82.5808 22.1782 82.7026 22.4449L83.6848 24.577C83.7286 24.669 83.807 24.8511 83.9192 25.1229C83.3771 25.1153 82.8351 25.1104 82.293 25.1081C81.9415 25.1081 81.3662 25.1131 80.5652 25.1229C80.4869 24.8708 80.3448 24.4027 80.1391 23.7182C80.0765 23.4949 80.0056 23.274 79.9265 23.0559C79.8087 22.7118 79.635 22.2288 79.4056 21.6082L78.6491 19.5489C78.9133 19.597 79.1725 19.6217 79.4261 19.6217C79.7829 19.6217 80.1064 19.568 80.3974 19.4612C80.6883 19.3545 80.908 19.1897 81.0566 18.9665C81.2058 18.7431 81.2807 18.508 81.2807 18.2605C81.2807 18.0518 81.2241 17.8685 81.1119 17.7114C80.9997 17.5534 80.8229 17.4359 80.5807 17.3581C80.3392 17.2806 79.9657 17.2417 79.4631 17.2417C79.2918 17.2417 79.1147 17.2451 78.9313 17.2525C78.7479 17.2596 78.5344 17.2658 78.2901 17.2708C78.227 18.2654 78.1723 19.4782 78.1238 20.9092C78.0763 22.3133 78.0451 23.7179 78.0302 25.1226C77.4993 25.1152 76.9683 25.1103 76.4373 25.1078C76.1548 25.1078 75.6435 25.1128 74.9047 25.1226V25.1226ZM86.1797 25.1226C86.3025 23.8706 86.3917 22.8232 86.4479 21.9789C86.5039 21.1345 86.5601 20.013 86.6167 18.6132C86.6732 17.2137 86.7015 16.2857 86.7015 15.8299L86.6944 15.1892C87.8472 15.1991 89.2415 15.204 90.8782 15.204C92.3878 15.204 93.7187 15.1991 94.8715 15.1892L94.8575 15.4287C94.8525 15.4867 94.8398 15.6969 94.8205 16.0595L94.7767 16.8501C94.7667 17.0217 94.7617 17.1936 94.7615 17.3655C93.8188 17.3266 93.0271 17.3072 92.3872 17.3072C91.6835 17.3072 91.2083 17.3087 90.9618 17.3106C90.7147 17.3137 90.3306 17.3245 89.8071 17.3433L89.7186 19.0172C90.2951 19.032 90.9674 19.0391 91.7345 19.0391C92.0077 19.0391 92.7362 19.0218 93.9185 18.9882C93.862 19.7272 93.8157 20.467 93.7796 21.2073C93.1303 21.199 92.4809 21.1943 91.8315 21.1931C91.0766 21.1948 90.3219 21.2117 89.5678 21.2438L89.4811 23.0121H90.3231C90.5721 23.0121 91.0874 23.0047 91.8688 22.9899L93.3846 22.9537C93.6093 22.9491 93.9851 22.9297 94.5125 22.8957C94.4524 23.6373 94.4036 24.3796 94.3661 25.1226C93.1732 25.1128 91.8669 25.1078 90.4452 25.1078L87.2206 25.1152L86.1797 25.1226Z" fill="#98AA28"/>
</svg>
