<svg width="210" height="18" viewBox="0 0 210 18" fill="none" xmlns="http://www.w3.org/2000/svg">
<g clip-path="url(#clip0_4_6275)">
<path d="M37.1711 12.0649C37.1064 12.3528 37.0277 12.754 36.9359 13.2682C36.8434 13.783 36.7818 14.1817 36.7491 14.4649C35.5924 14.6215 34.5602 14.6999 33.6521 14.6999C32.7763 14.6999 31.9614 14.601 31.2073 14.4024C30.4515 14.2034 29.7463 13.8719 29.1318 13.4266C28.5022 12.9738 28.0518 12.4419 27.7818 11.8303C27.5116 11.2187 27.3764 10.5336 27.3764 9.77511C27.3764 8.88962 27.5587 8.09345 27.9238 7.38631C28.2799 6.68906 28.8199 6.08175 29.4963 5.61781C30.1669 5.15145 30.9312 4.80748 31.7468 4.60502C32.5709 4.40084 33.4217 4.29835 34.2762 4.30031C35.076 4.30031 36.0652 4.39306 37.2436 4.57919L37.2598 5.19577C37.2704 5.46468 37.2869 5.76067 37.3089 6.08375L37.3653 6.92068C36.733 6.78343 36.221 6.69067 35.829 6.64181C35.4677 6.59492 35.1033 6.57037 34.7383 6.56835C34.0086 6.56835 33.3522 6.70063 32.768 6.96457C32.195 7.21983 31.7163 7.62022 31.3899 8.11711C31.0543 8.62101 30.8872 9.17876 30.8872 9.79036C30.8872 10.3481 31.0275 10.8262 31.3087 11.2252C31.5896 11.6239 31.97 11.932 32.4479 12.1496C32.9262 12.3678 33.5166 12.4764 34.2194 12.4764C34.6032 12.4764 35.0206 12.4481 35.4721 12.3921C35.9236 12.3357 36.4899 12.2265 37.1711 12.0649ZM41.8932 14.5091C41.9468 14.1129 42.0121 13.44 42.0874 12.491C42.1634 11.5417 42.2009 10.8713 42.2009 10.4798L38.488 4.49111C39.3029 4.50107 39.9759 4.50574 40.505 4.50574C41.0129 4.50574 41.6205 4.50107 42.3278 4.49111C42.5441 4.98038 42.837 5.56335 43.2077 6.24093C43.5777 6.91851 43.8793 7.52388 44.1117 8.05673C44.733 7.06417 45.2323 6.2901 45.6109 5.73484C45.9888 5.17958 46.2591 4.765 46.421 4.49111C47.1077 4.50107 47.7686 4.50574 48.4019 4.50574C48.7372 4.50574 49.3458 4.50107 50.2285 4.49111L46.6686 9.23946C45.9602 10.1884 45.6064 10.6852 45.6064 10.7294L45.5989 10.8028V10.8763L45.5906 10.9497L45.5339 12.0652C45.496 12.8041 45.4665 13.6187 45.4448 14.5095C44.6828 14.4995 44.0935 14.4945 43.6771 14.4945C43.2497 14.4942 42.6555 14.4992 41.8932 14.5091ZM51.1235 14.5091C51.2363 13.4325 51.312 12.586 51.3501 11.9697C51.4038 11.1281 51.4567 9.97337 51.5079 8.50585C51.5588 7.03771 51.585 6.00313 51.585 5.40119C51.585 5.18612 51.5819 4.88265 51.5767 4.49142C52.2961 4.50605 52.8662 4.51352 53.2877 4.51352C53.8771 4.51352 54.5638 4.50231 55.3474 4.48021C56.1314 4.45843 56.804 4.44722 57.3662 4.44722C58.0422 4.44722 58.5232 4.46465 58.8096 4.49858C59.1879 4.54277 59.519 4.62121 59.803 4.73357C60.0864 4.84593 60.3236 4.98536 60.5127 5.15188C60.728 5.35445 60.8961 5.59407 61.0072 5.85654C61.1437 6.17719 61.2123 6.51824 61.2094 6.86186C61.2094 7.14073 61.1705 7.40747 61.0925 7.66176C61.0207 7.90212 60.9086 8.13107 60.76 8.34058C60.6279 8.52704 60.4651 8.69414 60.2772 8.83608C60.1173 8.95738 59.9418 9.06083 59.7545 9.14422C59.584 9.21767 59.3557 9.29112 59.0689 9.36458C59.3557 9.40846 59.5854 9.45889 59.7587 9.51491C59.9313 9.57125 60.1166 9.66182 60.314 9.78632C60.5193 9.91864 60.6986 10.0812 60.8446 10.2672C61.0032 10.466 61.1224 10.6882 61.197 10.9239C61.2757 11.1661 61.3153 11.4219 61.3153 11.6908C61.3179 12.049 61.2492 12.4046 61.1124 12.7407C60.9766 13.0684 60.7882 13.3498 60.5451 13.5844C60.3394 13.7855 60.0716 13.9564 59.7418 14.0983C59.4128 14.2402 59.0744 14.3376 58.7281 14.3918C58.4476 14.431 57.9349 14.4603 57.1922 14.4802C56.4488 14.4995 55.661 14.5095 54.8282 14.5095L52.6963 14.502L51.1235 14.5091ZM54.5497 12.4979H56.108C56.5189 12.4979 56.8218 12.4761 57.0171 12.4319C57.2547 12.3784 57.4363 12.3074 57.5604 12.2193C57.6849 12.1309 57.7839 12.0114 57.8568 11.8595C57.9316 11.6995 57.9689 11.5272 57.9662 11.3534C57.9662 11.1916 57.9366 11.05 57.8768 10.9276C57.8182 10.806 57.7262 10.6999 57.6096 10.6195C57.4906 10.5361 57.3445 10.4763 57.1722 10.4393C56.9989 10.4026 56.7283 10.3842 56.3607 10.3842H54.6497L54.5497 12.4979ZM54.7353 8.39536H55.8886C56.2672 8.39536 56.5368 8.38696 56.6963 8.36984C56.8548 8.35293 57.011 8.32218 57.1629 8.27802C57.3123 8.23512 57.4476 8.15953 57.557 8.05797C57.6681 7.95495 57.7465 7.8401 57.7925 7.71311C57.8386 7.58613 57.8616 7.45883 57.8616 7.33122C57.8616 7.15038 57.8138 6.98885 57.7196 6.84692C57.6251 6.70499 57.4721 6.59979 57.2616 6.53132C57.0508 6.46284 56.7293 6.42829 56.2964 6.42829H54.8371L54.7353 8.39536ZM63.6941 14.5091C63.8292 13.2464 63.9286 12.1897 63.9908 11.3382C64.0527 10.4869 64.1149 9.35555 64.1775 7.94406C64.2401 6.53256 64.2707 5.59665 64.2707 5.13694L64.2628 4.49111C65.5381 4.50107 67.0807 4.50574 68.8921 4.50574C70.5615 4.50574 72.0345 4.50107 73.3099 4.49111L73.2937 4.73232C73.2882 4.79084 73.2748 5.0031 73.2535 5.36882L73.2043 6.16623C73.1935 6.33921 73.1881 6.51244 73.1882 6.68569C72.1452 6.64648 71.2695 6.62687 70.5608 6.62687C69.7823 6.62687 69.2572 6.62811 68.9839 6.63029C68.7112 6.63309 68.2855 6.64368 67.7072 6.66328L67.6092 8.35117C68.3522 8.36693 69.0954 8.3743 69.8387 8.37326C70.1416 8.37326 70.9476 8.35615 72.2549 8.3216C72.202 8.94813 72.1501 9.69419 72.1012 10.5601C71.3828 10.5516 70.6644 10.5467 69.946 10.5454C69.2005 10.5454 68.3656 10.5626 67.4424 10.5968L67.3458 12.3802H68.2779C68.5534 12.3802 69.1228 12.3728 69.9872 12.3581L71.6649 12.3214C71.9135 12.317 72.3292 12.2971 72.9127 12.2629C72.8461 13.0108 72.7919 13.7595 72.7501 14.5088C71.4318 14.4989 69.9852 14.4939 68.4124 14.4939L64.8449 14.5011L63.6941 14.5091ZM75.4624 14.5091C75.5652 13.6476 75.6463 12.8723 75.7062 12.1826C75.766 11.4926 75.8169 10.6927 75.8606 9.78258C75.9035 8.8725 75.9359 7.91231 75.9579 6.90201C75.9795 5.89171 75.9902 5.08807 75.9902 4.49111C76.6659 4.50574 77.2119 4.51321 77.6283 4.51321C78.0609 4.51321 78.588 4.502 79.2093 4.4799C79.8307 4.45812 80.4362 4.44691 81.0252 4.44691C81.717 4.44691 82.3336 4.4715 82.8734 4.52036C83.2792 4.55491 83.6478 4.62588 83.9803 4.73357C84.3128 4.84126 84.592 4.97198 84.8189 5.12605C85.036 5.27149 85.2273 5.44603 85.3863 5.64365C85.5372 5.83444 85.6548 6.05854 85.7387 6.31531C85.8226 6.57209 85.8649 6.84723 85.8649 7.14073C85.8649 7.46847 85.8185 7.77567 85.7267 8.06171C85.6346 8.34774 85.4901 8.61697 85.2928 8.86908C85.0954 9.12118 84.8468 9.33875 84.5466 9.52207C84.2471 9.70539 83.8266 9.89276 83.286 10.0836L83.708 11.0157C83.8269 11.275 83.9531 11.5396 84.0886 11.8085L85.1752 13.9589C85.2236 14.0516 85.3103 14.2352 85.4344 14.5095C84.835 14.5018 84.2356 14.4968 83.6361 14.4945C83.2472 14.4945 82.61 14.4995 81.7239 14.5095C81.6373 14.2552 81.4801 13.783 81.2532 13.0927C81.1834 12.8675 81.1048 12.6448 81.0173 12.4247C80.8877 12.0774 80.6948 11.5906 80.441 10.9644L79.6048 8.88744C79.897 8.93631 80.1831 8.96089 80.4644 8.96089C80.8584 8.96089 81.2171 8.90705 81.5382 8.79936C81.8601 8.69167 82.1032 8.52546 82.2682 8.30012C82.4329 8.07509 82.5155 7.83792 82.5155 7.58799C82.5155 7.3779 82.4529 7.19302 82.3294 7.03398C82.2046 6.87493 82.009 6.75635 81.7411 6.67791C81.4739 6.59948 81.0613 6.56026 80.5046 6.56026C80.3152 6.56026 80.1192 6.564 79.9163 6.57147C79.7134 6.57863 79.4779 6.58485 79.2069 6.58983C79.1378 7.59297 79.0766 8.81616 79.0237 10.2594C78.9705 11.6755 78.9358 13.092 78.9195 14.5088C78.3323 14.5014 77.7451 14.4964 77.1579 14.4939C76.845 14.4942 76.279 14.4992 75.4624 14.5091ZM87.8462 14.3548C87.7757 13.3124 87.6946 12.4786 87.6031 11.852C88.2097 12.097 88.7495 12.2669 89.2237 12.3625C89.6965 12.4577 90.1129 12.505 90.4701 12.505C90.9416 12.505 91.3164 12.4425 91.5949 12.318C91.8737 12.1932 92.0133 12.0086 92.0133 11.7637C92.0133 11.6806 91.9999 11.6012 91.9731 11.5252C91.9456 11.4496 91.894 11.3637 91.8187 11.2685C91.7427 11.1729 91.6348 11.069 91.4938 10.9566L89.9661 9.75301C89.6088 9.47912 89.3595 9.28054 89.2185 9.15853C88.9317 8.90923 88.7082 8.67673 88.5484 8.46135C88.3891 8.24596 88.2722 8.02716 88.199 7.80462C88.1258 7.58208 88.0897 7.34584 88.0897 7.09623C88.0897 6.79805 88.1474 6.50548 88.2643 6.21914C88.3799 5.93279 88.5545 5.66512 88.787 5.4155C89.0194 5.16589 89.3275 4.9505 89.7116 4.76967C90.0978 4.58767 90.5136 4.46254 90.9433 4.39898C91.391 4.33229 91.844 4.29918 92.2977 4.3C93.2103 4.3 94.2057 4.39555 95.2817 4.58635C95.2978 4.92374 95.3167 5.23343 95.3381 5.51448C95.3597 5.79585 95.4106 6.28886 95.4917 6.9932C94.9942 6.81237 94.5407 6.68632 94.1298 6.61535C93.7188 6.54439 93.3654 6.50891 93.0679 6.50891C92.6453 6.50891 92.2956 6.57987 92.0175 6.7218C91.7386 6.86373 91.5997 7.03989 91.5997 7.25029C91.5997 7.34802 91.6214 7.44358 91.6647 7.53633C91.7077 7.62939 91.7888 7.73801 91.9085 7.86282C92.0268 7.98763 92.1839 8.12458 92.3778 8.27398C92.6787 8.50035 92.9841 8.72179 93.2938 8.93817L93.8781 9.35649C94.0514 9.48379 94.2374 9.63785 94.4375 9.81868C94.624 9.98631 94.7975 10.1654 94.9567 10.3546C95.1025 10.5305 95.2146 10.6923 95.2933 10.8393C95.3714 10.9859 95.4295 11.134 95.4673 11.2831C95.5055 11.4325 95.5244 11.5928 95.5244 11.7637C95.5244 12.2041 95.4075 12.6239 95.1751 13.0226C94.9433 13.4214 94.6028 13.7598 94.1858 14.0059C93.7582 14.2634 93.2812 14.4464 92.7794 14.5456C92.2482 14.6501 91.7059 14.7017 91.1623 14.6996C90.2862 14.6999 89.1814 14.5848 87.8462 14.3548ZM97.9847 14.5091L98.1453 12.6302L98.3547 8.96058L98.4434 6.36231C98.4489 6.08344 98.4513 5.80456 98.4513 5.52568C98.4513 5.31528 98.4485 4.97042 98.4434 4.4908C99.1572 4.50542 99.7301 4.51289 100.163 4.51289C100.58 4.51289 101.15 4.50169 101.875 4.47959C102.488 4.45961 103.102 4.44861 103.716 4.4466C104.44 4.4466 104.977 4.48831 105.326 4.57141C105.664 4.65027 105.984 4.7833 106.27 4.9642C106.542 5.13415 106.779 5.34662 106.968 5.59167C107.157 5.84107 107.296 6.11783 107.381 6.40993C107.474 6.71588 107.519 7.02775 107.519 7.34584C107.519 8.00133 107.344 8.60047 106.992 9.14391C106.641 9.68703 106.146 10.0929 105.509 10.3624C104.871 10.6313 104.154 10.7661 103.36 10.7661C103.068 10.7661 102.73 10.7365 102.346 10.6777C102.303 10.4527 102.222 10.1178 102.103 9.6724C101.984 9.22732 101.887 8.89709 101.811 8.68171C102.049 8.7259 102.298 8.74769 102.557 8.74769C103.103 8.74769 103.51 8.62911 103.778 8.39194C104.045 8.15477 104.179 7.865 104.179 7.52232C104.179 7.3558 104.149 7.20796 104.09 7.07817C104.031 6.94933 103.932 6.83857 103.806 6.75915C103.678 6.67661 103.531 6.62138 103.376 6.59761C103.199 6.57181 103.02 6.55952 102.841 6.56089C102.646 6.56089 102.444 6.56587 102.233 6.57551L101.552 6.61971C101.477 7.66825 101.423 8.71794 101.391 9.76826C101.321 11.8723 101.287 13.1344 101.287 13.5552V14.5091L99.672 14.4942C99.4447 14.4942 98.8825 14.4992 97.9847 14.5091ZM116.077 4.30031C116.942 4.30031 117.774 4.40551 118.574 4.61592C119.374 4.82632 120.074 5.16277 120.674 5.62497C121.274 6.08748 121.722 6.6194 122.02 7.22104C122.317 7.82329 122.466 8.5155 122.466 9.29797C122.466 10.1203 122.302 10.8747 121.975 11.562C121.659 12.2362 121.175 12.8352 120.561 13.3124C119.944 13.792 119.209 14.1431 118.355 14.3657C117.488 14.5902 116.59 14.7027 115.688 14.6999C114.774 14.6999 113.898 14.5907 113.06 14.3731C112.223 14.1556 111.494 13.8032 110.875 13.3161C110.256 12.8294 109.817 12.2872 109.557 11.6902C109.299 11.0935 109.168 10.4306 109.168 9.70134C109.168 8.63004 109.443 7.68946 109.992 6.8796C110.54 6.06974 111.354 5.43729 112.433 4.98225C113.51 4.52783 114.725 4.30031 116.077 4.30031ZM115.931 6.50922C115.309 6.50922 114.747 6.64741 114.244 6.92411C113.741 7.2008 113.355 7.58457 113.085 8.07634C112.814 8.56759 112.676 9.10936 112.679 9.65808C112.679 10.1769 112.802 10.6513 113.048 11.0817C113.295 11.5125 113.669 11.8489 114.171 12.0911C114.662 12.3304 115.211 12.4553 115.768 12.4543C116.369 12.4543 116.919 12.3183 117.418 12.0469C117.919 11.7755 118.3 11.3936 118.562 10.9018C118.824 10.41 118.955 9.89525 118.955 9.35711C118.955 8.83359 118.833 8.35054 118.59 7.90764C118.357 7.47399 117.984 7.1145 117.52 6.87649C117.05 6.63185 116.52 6.50922 115.931 6.50922ZM124.577 14.5091C124.68 13.6476 124.761 12.8723 124.821 12.1826C124.88 11.4926 124.932 10.6927 124.975 9.78258C125.019 8.8725 125.052 7.91231 125.073 6.90201C125.094 5.89171 125.105 5.08807 125.105 4.49111C125.781 4.50574 126.327 4.51321 126.743 4.51321C127.175 4.51321 127.702 4.502 128.324 4.4799C128.946 4.45812 129.551 4.44691 130.14 4.44691C130.831 4.44691 131.448 4.4715 131.989 4.52036C132.394 4.55491 132.763 4.62588 133.095 4.73357C133.427 4.84126 133.707 4.97198 133.934 5.12605C134.151 5.27132 134.343 5.44589 134.501 5.64365C134.652 5.83444 134.77 6.05854 134.854 6.31531C134.938 6.57209 134.979 6.84723 134.979 7.14073C134.979 7.46847 134.933 7.77567 134.842 8.06171C134.75 8.34774 134.605 8.61697 134.408 8.86908C134.21 9.12118 133.962 9.33875 133.662 9.52207C133.362 9.70539 132.941 9.89276 132.401 10.0836L132.822 11.0157C132.941 11.275 133.069 11.5396 133.204 11.8085L134.29 13.9589C134.339 14.0516 134.425 14.2352 134.55 14.5095C133.95 14.5018 133.351 14.4968 132.751 14.4945C132.362 14.4945 131.725 14.4995 130.839 14.5095C130.752 14.2552 130.595 13.783 130.368 13.0927C130.298 12.8675 130.22 12.6447 130.132 12.4247C130.002 12.0774 129.811 11.5906 129.556 10.9644L128.719 8.88744C129.011 8.93631 129.298 8.96089 129.579 8.96089C129.974 8.96089 130.332 8.90705 130.653 8.79936C130.975 8.69167 131.218 8.52546 131.383 8.30012C131.548 8.07509 131.631 7.83792 131.631 7.58799C131.631 7.3779 131.568 7.19302 131.444 7.03398C131.32 6.87493 131.124 6.75635 130.856 6.67791C130.589 6.59948 130.176 6.56026 129.62 6.56026C129.43 6.56026 129.234 6.564 129.031 6.57147C128.829 6.57863 128.592 6.58485 128.322 6.58983C128.252 7.59297 128.192 8.81616 128.138 10.2594C128.086 11.6755 128.051 13.092 128.035 14.5088C127.447 14.5014 126.86 14.4964 126.272 14.4939C125.959 14.4942 125.394 14.4992 124.577 14.5091ZM139.523 14.5091C139.792 12.1309 139.953 9.51366 140.007 6.65613L136.556 6.73705L136.596 5.92221C136.618 5.48709 136.634 5.00995 136.645 4.49111C138.18 4.50107 139.969 4.50605 142.011 4.50605L144.013 4.49858H145.958L147.011 4.49111L146.963 5.20977C146.944 5.52844 146.93 5.84728 146.919 6.16623C146.911 6.41833 146.907 6.60851 146.907 6.73674C145.75 6.68289 144.798 6.65581 144.047 6.65581H143.48C143.404 7.45345 143.341 8.25209 143.292 9.05147C143.234 10.0704 143.188 11.0899 143.153 12.1098C143.125 12.9092 143.109 13.709 143.105 14.5088C142.532 14.5014 141.959 14.4964 141.386 14.4939C141.155 14.4942 140.534 14.4992 139.523 14.5091Z" fill="white"/>
<path d="M148.532 14.2699C148.468 13.236 148.395 12.4093 148.312 11.7884C148.86 12.0306 149.348 12.1994 149.777 12.2942C150.205 12.3889 150.581 12.4358 150.904 12.4358C151.329 12.4358 151.669 12.3741 151.921 12.2503C152.173 12.1266 152.299 11.9436 152.299 11.7007C152.299 11.6186 152.286 11.5396 152.262 11.4643C152.238 11.3896 152.191 11.3042 152.123 11.2097C152.054 11.115 151.956 11.0119 151.829 10.9002L150.448 9.70711C150.125 9.43554 149.9 9.23896 149.773 9.11767C149.513 8.87017 149.311 8.64026 149.167 8.42639C149.029 8.22666 148.922 8.00719 148.851 7.77554C148.784 7.54739 148.75 7.31081 148.752 7.07315C148.752 6.77751 148.804 6.48773 148.909 6.20381C149.019 5.91274 149.179 5.64302 149.382 5.40699C149.592 5.15948 149.871 4.94624 150.218 4.76694C150.567 4.58647 150.943 4.4623 151.332 4.39908C151.736 4.33294 152.146 4.30011 152.556 4.30094C153.381 4.30094 154.281 4.39599 155.253 4.58517C155.268 4.91939 155.284 5.22676 155.304 5.50543C155.324 5.7841 155.37 6.27294 155.443 6.97162C154.994 6.79232 154.583 6.66734 154.212 6.59697C153.841 6.52661 153.52 6.49112 153.252 6.49112C152.871 6.49112 152.554 6.56148 152.303 6.70283C152.051 6.84324 151.925 7.01791 151.925 7.22622C151.925 7.32343 151.945 7.41787 151.984 7.50983C152.023 7.60241 152.096 7.70981 152.203 7.83387C152.311 7.95793 152.453 8.09372 152.629 8.24154C152.805 8.38936 153.08 8.60878 153.457 8.8998L153.984 9.31487C154.14 9.4414 154.309 9.59355 154.49 9.77316C154.659 9.93897 154.816 10.1166 154.959 10.3046C155.091 10.4792 155.192 10.6394 155.263 10.7851C155.334 10.9307 155.387 11.077 155.421 11.2251C155.455 11.3733 155.472 11.5322 155.472 11.7016C155.473 12.1372 155.364 12.5662 155.157 12.9503C154.947 13.3452 154.639 13.6807 154.263 13.9251C153.876 14.1803 153.445 14.3616 152.991 14.46C152.511 14.5636 152.021 14.6148 151.529 14.6127C150.738 14.6121 149.738 14.4979 148.532 14.2699ZM166.329 11.9994C166.251 12.3957 166.18 12.7935 166.117 13.1925C166.034 13.703 165.977 14.0983 165.948 14.3791C164.903 14.5343 163.969 14.6121 163.148 14.6121C162.357 14.6121 161.62 14.514 160.939 14.3171C160.256 14.1196 159.618 13.7909 159.062 13.3496C158.494 12.9006 158.086 12.3732 157.842 11.7668C157.598 11.16 157.476 10.4811 157.476 9.72872C157.476 8.85104 157.641 8.06162 157.971 7.36016C158.301 6.65931 158.774 6.0745 159.392 5.60635C160.01 5.13819 160.688 4.80335 161.426 4.60214C162.171 4.39971 162.94 4.29808 163.712 4.30001C164.435 4.30001 165.33 4.3926 166.395 4.57683L166.41 5.18757C166.419 5.45451 166.434 5.748 166.453 6.06833L166.505 6.89787C165.933 6.76208 165.471 6.66981 165.116 6.62135C164.79 6.57472 164.46 6.55038 164.13 6.54852C163.471 6.54852 162.877 6.67937 162.35 6.94138C161.832 7.19453 161.399 7.59138 161.104 8.08384C160.8 8.58348 160.649 9.1365 160.649 9.74291C160.649 10.2959 160.776 10.77 161.03 11.1656C161.284 11.5609 161.628 11.8664 162.06 12.0821C162.493 12.2985 163.026 12.4062 163.661 12.4062C164.008 12.4062 164.385 12.3781 164.794 12.3226C165.202 12.2676 165.714 12.1596 166.329 11.9994ZM174.533 4.30032C175.315 4.30032 176.067 4.40494 176.79 4.61356C177.513 4.82218 178.146 5.15547 178.689 5.61406C179.231 6.07234 179.636 6.59975 179.905 7.19691C180.174 7.79375 180.308 8.48009 180.308 9.25593C180.308 10.0713 180.16 10.8193 179.865 11.5007C179.579 12.1695 179.141 12.7635 178.586 13.2363C178.029 13.7119 177.364 14.06 176.592 14.281C175.808 14.5034 174.997 14.6148 174.181 14.6121C173.355 14.6121 172.564 14.5038 171.807 14.2881C171.049 14.0724 170.391 13.723 169.832 13.24C169.272 12.7574 168.875 12.2198 168.641 11.6279C168.406 11.0363 168.288 10.379 168.288 9.65558C168.288 8.59366 168.537 7.66105 169.033 6.85806C169.529 6.05506 170.264 5.42797 171.239 4.9771C172.213 4.52591 173.312 4.30032 174.533 4.30032ZM174.401 6.4905C173.839 6.4905 173.331 6.62753 172.877 6.90219C172.423 7.17592 172.073 7.55705 171.829 8.04403C171.584 8.53121 171.459 9.06852 171.462 9.61268C171.462 10.1268 171.573 10.5971 171.795 11.0239C172.018 11.451 172.357 11.7847 172.811 12.0244C173.254 12.262 173.751 12.3858 174.255 12.3849C174.797 12.3849 175.294 12.25 175.746 11.9806C176.198 11.7118 176.543 11.3332 176.78 10.8453C177.014 10.3682 177.135 9.84435 177.135 9.31364C177.135 8.79456 177.025 8.31591 176.805 7.87677C176.594 7.44699 176.257 7.09054 175.838 6.85404C175.412 6.6121 174.934 6.4905 174.401 6.4905ZM182.217 14.4226C182.309 13.5684 182.383 12.7997 182.438 12.1155C182.491 11.4316 182.538 10.6385 182.576 9.73581C182.616 8.83345 182.645 7.8817 182.665 6.87966C182.685 5.87823 182.694 5.0811 182.694 4.48919C183.305 4.504 183.799 4.51141 184.174 4.51141C184.565 4.51141 185.042 4.49999 185.604 4.47839C186.166 4.45679 186.712 4.44568 187.245 4.44568C187.87 4.44568 188.427 4.47037 188.916 4.5182C189.282 4.55276 189.616 4.62313 189.916 4.7299C190.216 4.83668 190.469 4.96661 190.675 5.11875C190.871 5.26299 191.044 5.43616 191.187 5.63227C191.324 5.82145 191.43 6.04303 191.506 6.29793C191.582 6.55253 191.619 6.82534 191.619 7.11636C191.619 7.44132 191.577 7.74561 191.495 8.02983C191.41 8.31659 191.278 8.58719 191.103 8.83036C190.919 9.08496 190.691 9.30442 190.428 9.47813C190.157 9.6599 189.777 9.84506 189.289 10.0345L189.67 10.9591C189.777 11.2162 189.893 11.4782 190.014 11.7448L190.997 13.877C191.04 13.969 191.119 14.151 191.231 14.4229C190.689 14.4153 190.147 14.4104 189.605 14.4081C189.253 14.4081 188.678 14.4131 187.877 14.4229C187.799 14.1708 187.657 13.7026 187.451 13.0182C187.388 12.7949 187.317 12.5739 187.238 12.3559C187.12 12.0118 186.947 11.5288 186.717 10.9082L185.961 8.84888C186.225 8.89702 186.484 8.92171 186.738 8.92171C187.095 8.92171 187.418 8.86801 187.709 8.76123C188 8.65445 188.22 8.48966 188.368 8.26654C188.518 8.04311 188.592 7.80795 188.592 7.56044C188.592 7.35183 188.536 7.16851 188.424 7.01143C188.312 6.85343 188.135 6.73585 187.893 6.65808C187.651 6.58062 187.277 6.54173 186.775 6.54173C186.604 6.54173 186.426 6.54513 186.243 6.55254C186.06 6.55963 185.846 6.5658 185.602 6.57074C185.539 7.56538 185.484 8.77821 185.436 10.2092C185.388 11.6133 185.357 13.0178 185.342 14.4226C184.811 14.4152 184.28 14.4103 183.749 14.4078C183.467 14.4078 182.955 14.4127 182.217 14.4226ZM193.491 14.4226C193.614 13.1706 193.703 12.1232 193.76 11.2788C193.816 10.4345 193.872 9.31302 193.928 7.91318C193.985 6.51365 194.013 5.58567 194.013 5.12986L194.006 4.48919C195.159 4.49907 196.553 4.504 198.19 4.504C199.7 4.504 201.03 4.49907 202.183 4.48919L202.169 4.72867C202.164 4.78669 202.152 4.99685 202.132 5.35946L202.088 6.15011C202.079 6.32173 202.073 6.49359 202.073 6.66548C201.131 6.6266 200.339 6.60716 199.699 6.60716C198.995 6.60716 198.52 6.6087 198.274 6.61055C198.026 6.61364 197.642 6.62444 197.119 6.64327L197.03 8.31715C197.607 8.33196 198.279 8.33906 199.046 8.33906C199.319 8.33906 200.048 8.32178 201.23 8.28814C201.174 9.0272 201.127 9.767 201.091 10.5073C200.442 10.499 199.793 10.4943 199.143 10.4931C198.388 10.4948 197.634 10.5117 196.88 10.5437L196.793 12.3121H197.635C197.884 12.3121 198.399 12.3047 199.181 12.2898L200.696 12.2537C200.921 12.2491 201.297 12.2297 201.824 12.1957C201.764 12.9372 201.715 13.6796 201.678 14.4226C200.485 14.4127 199.179 14.4078 197.757 14.4078L194.532 14.4152L193.491 14.4226Z" fill="#98AA28"/>
<path fill-rule="evenodd" clip-rule="evenodd" d="M16.1211 2.481C15.742 2.51701 15.408 2.56036 15.0741 2.57869C13.291 2.68004 11.5077 2.77061 9.72508 2.87283C7.83012 2.98173 5.93428 3.08524 4.04127 3.21808C3.06993 3.28622 2.31698 4.06621 2.30917 5.04611C2.28748 7.79688 2.28748 10.5468 2.31047 13.2976C2.31871 14.2617 3.1094 15.0596 4.0571 15.1176C7.46557 15.3255 10.8745 15.5174 14.2836 15.7167C14.8858 15.7525 15.487 15.7939 16.1651 15.8377C15.912 16.3804 15.5249 16.6302 15.0446 16.6582C14.3545 16.6987 13.6586 16.6806 12.9663 16.6526C11.0545 16.5762 9.14323 16.4829 7.23157 16.3953C5.47713 16.3149 3.72205 16.242 1.96761 16.151C0.868754 16.0932 0.076547 15.2114 0.0737278 14.0426C0.0665712 11.1506 0.0704748 8.25966 0.0704748 5.36785C0.0704748 4.9868 0.0644026 4.60619 0.073294 4.22579C0.10127 3.01774 0.937284 2.21597 2.15455 2.16896C4.91632 2.06265 7.67679 1.94038 10.4371 1.81574C11.7955 1.75471 13.1516 1.67017 14.5098 1.60419C15.2749 1.56666 15.8851 1.88366 16.1211 2.481ZM16.8304 1.30379C18.1455 1.14357 20.3272 2.19462 20.338 4.06212C20.3571 7.4622 20.3675 10.8636 20.3317 14.2626C20.3176 15.5647 19.476 16.339 18.3298 16.7925C17.8948 16.9646 17.416 17.0254 16.9317 17.0832C17.9306 16.1827 18.0893 15.0271 18.0906 13.819C18.0935 10.6585 18.1002 7.498 18.0831 4.33728C18.08 3.8359 17.9948 3.32633 17.8796 2.83682C17.7387 2.23862 17.4674 1.69411 16.8304 1.30379Z" fill="white"/>
<path fill-rule="evenodd" clip-rule="evenodd" d="M11.7816 7.83566C11.7816 7.89504 11.7699 7.95384 11.7471 8.0087C11.7242 8.06356 11.6908 8.11342 11.6486 8.15541C11.6063 8.19741 11.5562 8.23072 11.5011 8.25345C11.4459 8.27618 11.3868 8.28787 11.3271 8.28787H8.57201C8.51229 8.2879 8.45315 8.27622 8.39798 8.25351C8.3428 8.23079 8.29267 8.19748 8.25046 8.15548C8.20824 8.11348 8.17476 8.06361 8.15194 8.00874C8.12912 7.95386 8.11741 7.89505 8.11746 7.83566V5.98995C8.11746 5.74002 8.32066 5.53753 8.57201 5.53753L11.3414 5.37558C11.5927 5.37558 11.7961 5.57742 11.7961 5.82757L11.7816 7.83566ZM11.7964 12.4548C11.7964 12.5142 11.7846 12.573 11.7617 12.6278C11.7389 12.6827 11.7054 12.7325 11.6631 12.7745C11.6209 12.8165 11.5708 12.8497 11.5156 12.8724C11.4604 12.8951 11.4013 12.9068 11.3416 12.9068L8.57223 12.8078C8.51251 12.8078 8.45337 12.7962 8.3982 12.7734C8.34302 12.7507 8.29289 12.7174 8.25067 12.6754C8.20846 12.6334 8.17498 12.5835 8.15216 12.5287C8.12934 12.4738 8.11762 12.415 8.11768 12.3556V10.5099C8.11768 10.2597 8.32088 10.0577 8.57223 10.0577L11.3416 10.1133C11.5929 10.1133 11.7964 10.3152 11.7964 10.5651V12.4548Z" fill="white"/>
</g>
<defs>
<clipPath id="clip0_4_6275">
<rect width="210" height="17" fill="white" transform="translate(0 0.5)"/>
</clipPath>
</defs>
</svg>
