<svg width="74" height="29" viewBox="0 0 74 29" fill="none" xmlns="http://www.w3.org/2000/svg">
<path d="M20.2361 13.6668V6.84894C20.2361 5.93515 19.4953 5.19421 18.5814 5.19421C17.6676 5.19421 16.9266 5.93496 16.9266 6.84894V13.6668H16.6743V10.3516C16.6743 9.13133 15.6853 8.14227 14.465 8.14227C13.245 8.14227 12.2557 9.13133 12.2557 10.3516V13.6043C12.2557 13.6252 12.2581 13.6459 12.2587 13.6668H11.9614V9.55268C11.9614 8.33243 10.9724 7.34337 9.75211 7.34337C8.53206 7.34337 7.54281 8.33243 7.54281 9.55268V13.6045C7.54281 13.6254 7.5452 13.6459 7.5458 13.6668H7.29051V2.89351C7.29051 1.67326 6.30146 0.684204 5.08121 0.684204C3.86097 0.684204 2.87191 1.67326 2.87191 2.89351V13.6668V14.4671H2.86873C2.70982 14.4671 2.5543 14.4866 2.40496 14.5239C2.3054 14.5485 2.20862 14.5812 2.11543 14.6208C1.88225 14.7202 1.67118 14.8648 1.49456 15.0454C1.4392 15.1019 1.38842 15.1629 1.34024 15.2262C1.30678 15.27 1.27512 15.3154 1.24545 15.3622C1.15385 15.5069 1.07938 15.6648 1.0282 15.8349L0.328076 18.1571C0.163399 18.7033 0.0990835 19.2668 0.130944 19.8222C0.18411 20.7477 0.503904 21.6508 1.07042 22.4146L4.06786 26.6012C4.43903 26.9724 4.89443 27.2882 5.39424 27.5353C6.25785 28.0953 7.28693 28.4216 8.39288 28.4216H14.7151C17.7641 28.4216 20.2359 25.9499 20.2359 22.9009V13.667L20.2361 13.6668Z" fill="white"/>
<path d="M14.3585 15.8736C13.1703 15.8176 12.2561 14.7941 12.2561 13.6043V15.2772C12.2561 16.4667 13.1703 17.4905 14.3585 17.5464C15.6271 17.6061 16.6745 16.5952 16.6745 15.3397V13.6668C16.6745 14.9223 15.6271 15.9333 14.3585 15.8736Z" fill="#9BD100"/>
<path d="M5.08186 0.684204C3.86162 0.684204 2.87256 1.67326 2.87256 2.89351V4.56636C2.87256 3.34632 3.86162 2.35706 5.08186 2.35706C6.3021 2.35706 7.29116 3.34612 7.29116 4.56636V2.89351C7.29116 1.67326 6.30191 0.684204 5.08186 0.684204Z" fill="#9BD100"/>
<path d="M9.75252 7.34338C8.53247 7.34338 7.54321 8.33244 7.54321 9.55269V11.2255C7.54321 10.0053 8.53227 9.01624 9.75252 9.01624C10.9728 9.01624 11.9618 10.0053 11.9618 11.2255V9.55269C11.9618 8.33244 10.9728 7.34338 9.75252 7.34338Z" fill="#9BD100"/>
<path d="M14.4652 8.14227C13.2449 8.14227 12.2559 9.13133 12.2559 10.3516V12.0244C12.2559 10.8042 13.2449 9.81513 14.4652 9.81513C15.6854 9.81513 16.6745 10.8042 16.6745 12.0244V10.3516C16.6745 9.13153 15.6854 8.14227 14.4652 8.14227Z" fill="#9BD100"/>
<path d="M9.93469 21.151C11.4038 20.6237 12.4548 19.2191 12.4548 17.5683C12.4548 17.3716 12.4194 17.1834 12.3575 17.008C11.9698 18.6986 10.4572 19.96 8.64893 19.96H5.51489L5.86655 20.6902C7.18377 20.1044 8.7479 20.2593 9.93469 21.151Z" fill="#9BD100"/>
<path d="M6.56583 20.4559C6.39199 20.5017 6.23269 20.55 6.08992 20.6014C6.01505 20.6295 5.94018 20.6576 5.8667 20.6902V22.3631C7.44816 21.6596 9.38844 22.0206 10.6003 23.4481C11.0436 23.9702 11.3277 24.5823 11.4611 25.2209C11.7101 24.0314 11.4263 22.7482 10.6003 21.7753C9.56208 20.552 7.98978 20.1146 6.56583 20.4559Z" fill="#9BD100"/>
<path d="M0.328336 19.8296L1.02847 17.5074C1.27319 16.6954 2.02111 16.1398 2.86918 16.1398H10.7677C11.4637 16.1398 12.0608 16.5613 12.3187 17.1627C12.4069 16.8413 12.4549 16.5034 12.4549 16.1539C12.4549 15.2222 11.6996 14.4667 10.7677 14.4667H2.86918C2.02111 14.4667 1.27319 15.0225 1.02847 15.8343L0.328336 18.1565C0.107904 18.8877 0.0676841 19.6498 0.196718 20.382C0.229573 20.1968 0.273377 20.0122 0.328336 19.8296Z" fill="#9BD100"/>
<path d="M5.51498 19.96H3.22046L3.72922 20.69H5.86664L5.51498 19.96Z" fill="#9BD100"/>
<path d="M18.5815 5.20038C17.6677 5.20038 16.9268 5.94113 16.9268 6.85511V8.52797C16.9268 7.61418 17.6675 6.87324 18.5815 6.87324C19.4953 6.87324 20.2362 7.61398 20.2362 8.52797V6.85511C20.236 5.94113 19.4953 5.20038 18.5815 5.20038Z" fill="#9BD100"/>
<path d="M32.0129 12.0529V2.95292H36.6799V4.51292H33.7939V6.68392H36.3679V8.19192H33.7939V10.5449H36.7319V12.0529H32.0129ZM38.4435 2.95292H41.5635V4.51292H39.0675L39.0285 4.59092L41.1085 8.38692C41.5332 9.14958 41.7455 9.73025 41.7455 10.1289C41.7455 11.0043 41.4552 11.6456 40.8745 12.0529H37.4295V10.5449H40.1205L40.1595 10.4669L37.8195 6.26792C37.4815 5.66125 37.3125 5.16725 37.3125 4.78592C37.3125 3.88458 37.6895 3.27358 38.4435 2.95292ZM44.4066 4.51292V7.76292H45.5636C46.0403 7.37292 46.2786 6.80092 46.2786 6.04692C46.2786 5.72625 46.2136 5.42292 46.0836 5.13692C45.9623 4.85092 45.8149 4.64292 45.6416 4.51292H44.4066ZM42.6516 12.0529V2.95292H46.1746C46.7639 3.21292 47.2276 3.61158 47.5656 4.14892C47.9123 4.68625 48.0856 5.31458 48.0856 6.03392C48.0856 6.74458 47.9079 7.40325 47.5526 8.00992C47.1973 8.61658 46.6729 9.04558 45.9796 9.29692H44.4066V12.0529H42.6516ZM53.1484 2.95292C53.755 3.44692 54.2057 4.10992 54.5004 4.94192C54.795 5.77392 54.9424 6.63192 54.9424 7.51592C54.9424 8.39125 54.7994 9.22325 54.5134 10.0119C54.2274 10.8006 53.7724 11.4809 53.1484 12.0529H50.4704C49.8464 11.4809 49.3914 10.8006 49.1054 10.0119C48.8194 9.22325 48.6764 8.39125 48.6764 7.51592C48.6764 6.63192 48.8237 5.77392 49.1184 4.94192C49.413 4.10992 49.8637 3.44692 50.4704 2.95292H53.1484ZM51.3414 10.5449H52.2774C52.494 10.2936 52.676 9.88625 52.8234 9.32292C52.9794 8.75092 53.0574 8.14858 53.0574 7.51592C53.0574 6.88325 52.9837 6.28958 52.8364 5.73492C52.689 5.17158 52.507 4.76425 52.2904 4.51292H51.3414C51.1247 4.76425 50.9384 5.17158 50.7824 5.73492C50.635 6.28958 50.5614 6.88325 50.5614 7.51592C50.5614 8.14858 50.635 8.75092 50.7824 9.32292C50.9384 9.88625 51.1247 10.2936 51.3414 10.5449ZM55.9563 2.95292H59.4143C59.9603 3.13492 60.4239 3.47292 60.8053 3.96692C61.1953 4.45225 61.3903 5.05025 61.3903 5.76092C61.3903 6.92225 60.9309 7.77592 60.0123 8.32192L61.3253 12.0529H59.5053L58.4003 8.73792H57.7113V12.0529H55.9563V2.95292ZM57.7113 4.51292V7.28192H58.8293C58.9766 7.24725 59.1369 7.09992 59.3103 6.83992C59.4923 6.57125 59.5833 6.25925 59.5833 5.90392C59.5833 5.54858 59.5053 5.23658 59.3493 4.96792C59.2019 4.69925 59.0546 4.54758 58.9073 4.51292H57.7113ZM63.6714 4.51292H61.7084V2.95292H67.4024V4.51292H65.4394V12.0529H63.6714V4.51292ZM68.9885 2.95292H72.1085V4.51292H69.6125L69.5735 4.59092L71.6535 8.38692C72.0781 9.14958 72.2905 9.73025 72.2905 10.1289C72.2905 11.0043 72.0001 11.6456 71.4195 12.0529H67.9745V10.5449H70.6655L70.7045 10.4669L68.3645 6.26792C68.0265 5.66125 67.8575 5.16725 67.8575 4.78592C67.8575 3.88458 68.2345 3.27358 68.9885 2.95292ZM32.2529 13.4529H37.0409C37.7969 13.7049 38.4389 14.1729 38.9669 14.8569C39.5069 15.5289 39.7769 16.3569 39.7769 17.3409C39.7769 18.9489 39.1409 20.1309 37.8689 20.8869L39.6869 26.0529H37.1669L35.6369 21.4629H34.6829V26.0529H32.2529V13.4529ZM34.6829 15.6129V19.4469H36.2309C36.4349 19.3989 36.6569 19.1949 36.8969 18.8349C37.1489 18.4629 37.2749 18.0309 37.2749 17.5389C37.2749 17.0469 37.1669 16.6149 36.9509 16.2429C36.7469 15.8709 36.5429 15.6609 36.3389 15.6129H34.6829ZM46.7694 13.4529C47.6094 14.1369 48.2334 15.0549 48.6414 16.2069C49.0494 17.3589 49.2534 18.5469 49.2534 19.7709C49.2534 20.9829 49.0554 22.1349 48.6594 23.2269C48.2634 24.3189 47.6334 25.2609 46.7694 26.0529H43.0614C42.1974 25.2609 41.5674 24.3189 41.1714 23.2269C40.7754 22.1349 40.5774 20.9829 40.5774 19.7709C40.5774 18.5469 40.7814 17.3589 41.1894 16.2069C41.5974 15.0549 42.2214 14.1369 43.0614 13.4529H46.7694ZM44.2674 23.9649H45.5634C45.8634 23.6169 46.1154 23.0529 46.3194 22.2729C46.5354 21.4809 46.6434 20.6469 46.6434 19.7709C46.6434 18.8949 46.5414 18.0729 46.3374 17.3049C46.1334 16.5249 45.8814 15.9609 45.5814 15.6129H44.2674C43.9674 15.9609 43.7094 16.5249 43.4934 17.3049C43.2894 18.0729 43.1874 18.8949 43.1874 19.7709C43.1874 20.6469 43.2894 21.4809 43.4934 22.2729C43.7094 23.0529 43.9674 23.6169 44.2674 23.9649ZM54.1492 23.9649H57.3172V26.0529H52.7452C51.9532 25.3089 51.3532 24.3669 50.9452 23.2269C50.5372 22.0869 50.3332 20.9169 50.3332 19.7169C50.3332 18.5049 50.5612 17.3409 51.0172 16.2249C51.4732 15.1089 52.1512 14.1849 53.0512 13.4529H57.3172V15.6129H54.1492C53.8252 15.9849 53.5432 16.5849 53.3032 17.4129C53.0752 18.2409 52.9612 19.0329 52.9612 19.7889C52.9612 20.5449 53.0752 21.3369 53.3032 22.1649C53.5432 22.9929 53.8252 23.5929 54.1492 23.9649ZM58.6377 26.0529V13.4529H61.1037V18.7629H61.1937L63.4437 13.4529H65.9817L63.3537 19.4649L66.1077 26.0529H63.3717L61.2297 20.5449H61.1037V26.0529H58.6377Z" fill="#9BD100"/>
<path d="M32.0129 13.0529V3.95292H36.6799V5.51292H33.7939V7.68392H36.3679V9.19192H33.7939V11.5449H36.7319V13.0529H32.0129ZM38.4435 3.95292H41.5635V5.51292H39.0675L39.0285 5.59092L41.1085 9.38692C41.5332 10.1496 41.7455 10.7303 41.7455 11.1289C41.7455 12.0043 41.4552 12.6456 40.8745 13.0529H37.4295V11.5449H40.1205L40.1595 11.4669L37.8195 7.26792C37.4815 6.66125 37.3125 6.16725 37.3125 5.78592C37.3125 4.88458 37.6895 4.27358 38.4435 3.95292ZM44.4066 5.51292V8.76292H45.5636C46.0403 8.37292 46.2786 7.80092 46.2786 7.04692C46.2786 6.72625 46.2136 6.42292 46.0836 6.13692C45.9623 5.85092 45.8149 5.64292 45.6416 5.51292H44.4066ZM42.6516 13.0529V3.95292H46.1746C46.7639 4.21292 47.2276 4.61158 47.5656 5.14892C47.9123 5.68625 48.0856 6.31458 48.0856 7.03392C48.0856 7.74458 47.9079 8.40325 47.5526 9.00992C47.1973 9.61658 46.6729 10.0456 45.9796 10.2969H44.4066V13.0529H42.6516ZM53.1484 3.95292C53.755 4.44692 54.2057 5.10992 54.5004 5.94192C54.795 6.77392 54.9424 7.63192 54.9424 8.51592C54.9424 9.39125 54.7994 10.2233 54.5134 11.0119C54.2274 11.8006 53.7724 12.4809 53.1484 13.0529H50.4704C49.8464 12.4809 49.3914 11.8006 49.1054 11.0119C48.8194 10.2233 48.6764 9.39125 48.6764 8.51592C48.6764 7.63192 48.8237 6.77392 49.1184 5.94192C49.413 5.10992 49.8637 4.44692 50.4704 3.95292H53.1484ZM51.3414 11.5449H52.2774C52.494 11.2936 52.676 10.8863 52.8234 10.3229C52.9794 9.75092 53.0574 9.14858 53.0574 8.51592C53.0574 7.88325 52.9837 7.28958 52.8364 6.73492C52.689 6.17158 52.507 5.76425 52.2904 5.51292H51.3414C51.1247 5.76425 50.9384 6.17158 50.7824 6.73492C50.635 7.28958 50.5614 7.88325 50.5614 8.51592C50.5614 9.14858 50.635 9.75092 50.7824 10.3229C50.9384 10.8863 51.1247 11.2936 51.3414 11.5449ZM55.9563 3.95292H59.4143C59.9603 4.13492 60.4239 4.47292 60.8053 4.96692C61.1953 5.45225 61.3903 6.05025 61.3903 6.76092C61.3903 7.92225 60.9309 8.77592 60.0123 9.32192L61.3253 13.0529H59.5053L58.4003 9.73792H57.7113V13.0529H55.9563V3.95292ZM57.7113 5.51292V8.28192H58.8293C58.9766 8.24725 59.1369 8.09992 59.3103 7.83992C59.4923 7.57125 59.5833 7.25925 59.5833 6.90392C59.5833 6.54858 59.5053 6.23658 59.3493 5.96792C59.2019 5.69925 59.0546 5.54758 58.9073 5.51292H57.7113ZM63.6714 5.51292H61.7084V3.95292H67.4024V5.51292H65.4394V13.0529H63.6714V5.51292ZM68.9885 3.95292H72.1085V5.51292H69.6125L69.5735 5.59092L71.6535 9.38692C72.0781 10.1496 72.2905 10.7303 72.2905 11.1289C72.2905 12.0043 72.0001 12.6456 71.4195 13.0529H67.9745V11.5449H70.6655L70.7045 11.4669L68.3645 7.26792C68.0265 6.66125 67.8575 6.16725 67.8575 5.78592C67.8575 4.88458 68.2345 4.27358 68.9885 3.95292ZM32.2529 14.4529H37.0409C37.7969 14.7049 38.4389 15.1729 38.9669 15.8569C39.5069 16.5289 39.7769 17.3569 39.7769 18.3409C39.7769 19.9489 39.1409 21.1309 37.8689 21.8869L39.6869 27.0529H37.1669L35.6369 22.4629H34.6829V27.0529H32.2529V14.4529ZM34.6829 16.6129V20.4469H36.2309C36.4349 20.3989 36.6569 20.1949 36.8969 19.8349C37.1489 19.4629 37.2749 19.0309 37.2749 18.5389C37.2749 18.0469 37.1669 17.6149 36.9509 17.2429C36.7469 16.8709 36.5429 16.6609 36.3389 16.6129H34.6829ZM46.7694 14.4529C47.6094 15.1369 48.2334 16.0549 48.6414 17.2069C49.0494 18.3589 49.2534 19.5469 49.2534 20.7709C49.2534 21.9829 49.0554 23.1349 48.6594 24.2269C48.2634 25.3189 47.6334 26.2609 46.7694 27.0529H43.0614C42.1974 26.2609 41.5674 25.3189 41.1714 24.2269C40.7754 23.1349 40.5774 21.9829 40.5774 20.7709C40.5774 19.5469 40.7814 18.3589 41.1894 17.2069C41.5974 16.0549 42.2214 15.1369 43.0614 14.4529H46.7694ZM44.2674 24.9649H45.5634C45.8634 24.6169 46.1154 24.0529 46.3194 23.2729C46.5354 22.4809 46.6434 21.6469 46.6434 20.7709C46.6434 19.8949 46.5414 19.0729 46.3374 18.3049C46.1334 17.5249 45.8814 16.9609 45.5814 16.6129H44.2674C43.9674 16.9609 43.7094 17.5249 43.4934 18.3049C43.2894 19.0729 43.1874 19.8949 43.1874 20.7709C43.1874 21.6469 43.2894 22.4809 43.4934 23.2729C43.7094 24.0529 43.9674 24.6169 44.2674 24.9649ZM54.1492 24.9649H57.3172V27.0529H52.7452C51.9532 26.3089 51.3532 25.3669 50.9452 24.2269C50.5372 23.0869 50.3332 21.9169 50.3332 20.7169C50.3332 19.5049 50.5612 18.3409 51.0172 17.2249C51.4732 16.1089 52.1512 15.1849 53.0512 14.4529H57.3172V16.6129H54.1492C53.8252 16.9849 53.5432 17.5849 53.3032 18.4129C53.0752 19.2409 52.9612 20.0329 52.9612 20.7889C52.9612 21.5449 53.0752 22.3369 53.3032 23.1649C53.5432 23.9929 53.8252 24.5929 54.1492 24.9649ZM58.6377 27.0529V14.4529H61.1037V19.7629H61.1937L63.4437 14.4529H65.9817L63.3537 20.4649L66.1077 27.0529H63.3717L61.2297 21.5449H61.1037V27.0529H58.6377Z" fill="white"/>
</svg>
