<svg width="210" height="17" viewBox="0 0 210 17" fill="none" xmlns="http://www.w3.org/2000/svg">
<path d="M37.171 11.5649C37.1064 11.8528 37.0276 12.254 36.9358 12.7682C36.8433 13.283 36.7818 13.6817 36.7491 13.9649C35.5924 14.1215 34.5602 14.1999 33.652 14.1999C32.7763 14.1999 31.9613 14.101 31.2073 13.9024C30.4515 13.7034 29.7463 13.3719 29.1318 12.9266C28.5022 12.4738 28.0517 11.9419 27.7818 11.3303C27.5115 10.7187 27.3764 10.0336 27.3764 9.27511C27.3764 8.38962 27.5586 7.59345 27.9238 6.88631C28.2799 6.18906 28.8199 5.58175 29.4963 5.11781C30.1669 4.65145 30.9312 4.30748 31.7468 4.10502C32.5709 3.90084 33.4217 3.79835 34.2761 3.80031C35.0759 3.80031 36.0652 3.89306 37.2436 4.07919L37.2597 4.69577C37.2704 4.96468 37.2869 5.26067 37.3089 5.58375L37.3653 6.42068C36.733 6.28343 36.221 6.19067 35.829 6.14181C35.4677 6.09492 35.1033 6.07037 34.7383 6.06835C34.0086 6.06835 33.3522 6.20063 32.768 6.46457C32.195 6.71983 31.7162 7.12022 31.3898 7.61711C31.0542 8.12101 30.8871 8.67876 30.8871 9.29036C30.8871 9.84811 31.0274 10.3262 31.3087 10.7252C31.5896 11.1239 31.9699 11.432 32.4479 11.6496C32.9262 11.8678 33.5166 11.9764 34.2194 11.9764C34.6031 11.9764 35.0206 11.9481 35.472 11.8921C35.9235 11.8357 36.4899 11.7265 37.171 11.5649ZM41.8931 14.0091C41.9468 13.6129 42.0121 12.94 42.0874 11.991C42.1634 11.0417 42.2009 10.3713 42.2009 9.97977L38.488 3.99111C39.3029 4.00107 39.9758 4.00574 40.505 4.00574C41.0129 4.00574 41.6205 4.00107 42.3278 3.99111C42.544 4.48038 42.837 5.06335 43.2077 5.74093C43.5777 6.41851 43.8792 7.02388 44.1117 7.55673C44.733 6.56417 45.2323 5.7901 45.6109 5.23484C45.9888 4.67958 46.259 4.265 46.421 3.99111C47.1077 4.00107 47.7685 4.00574 48.4019 4.00574C48.7372 4.00574 49.3458 4.00107 50.2284 3.99111L46.6686 8.73946C45.9602 9.68844 45.6064 10.1852 45.6064 10.2294L45.5988 10.3028V10.3763L45.5906 10.4497L45.5338 11.5652C45.496 12.3041 45.4664 13.1187 45.4448 14.0095C44.6828 13.9995 44.0934 13.9945 43.677 13.9945C43.2496 13.9942 42.6555 13.9992 41.8931 14.0091ZM51.1235 14.0091C51.2363 12.9325 51.3119 12.086 51.3501 11.4697C51.4037 10.6281 51.4567 9.47337 51.5079 8.00585C51.5588 6.53771 51.5849 5.50313 51.5849 4.90119C51.5849 4.68612 51.5818 4.38265 51.5767 3.99142C52.296 4.00605 52.8661 4.01352 53.2877 4.01352C53.8771 4.01352 54.5637 4.00231 55.3474 3.98021C56.1313 3.95843 56.8039 3.94722 57.3661 3.94722C58.0421 3.94722 58.5232 3.96465 58.8096 3.99858C59.1878 4.04277 59.519 4.12121 59.803 4.23357C60.0863 4.34593 60.3236 4.48536 60.5127 4.65188C60.728 4.85445 60.8961 5.09407 61.0072 5.35654C61.1437 5.67719 61.2122 6.01824 61.2094 6.36186C61.2094 6.64073 61.1705 6.90747 61.0924 7.16176C61.0207 7.40212 60.9086 7.63107 60.7599 7.84058C60.6278 8.02704 60.465 8.19414 60.2772 8.33608C60.1172 8.45738 59.9417 8.56083 59.7545 8.64422C59.584 8.71767 59.3556 8.79112 59.0689 8.86458C59.3556 8.90846 59.5853 8.95889 59.7586 9.01491C59.9313 9.07125 60.1166 9.16182 60.314 9.28632C60.5193 9.41864 60.6986 9.58118 60.8445 9.76719C61.0031 9.96598 61.1224 10.1882 61.197 10.4239C61.2757 10.6661 61.3153 10.9219 61.3153 11.1908C61.3179 11.549 61.2492 11.9046 61.1124 12.2407C60.9766 12.5684 60.7881 12.8498 60.545 13.0844C60.3394 13.2855 60.0715 13.4564 59.7418 13.5983C59.4127 13.7402 59.0744 13.8376 58.7281 13.8918C58.4475 13.931 57.9349 13.9603 57.1921 13.9802C56.4487 13.9995 55.661 14.0095 54.8282 14.0095L52.6963 14.002L51.1235 14.0091ZM54.5496 11.9979H56.108C56.5189 11.9979 56.8218 11.9761 57.0171 11.9319C57.2547 11.8784 57.4363 11.8074 57.5604 11.7193C57.6849 11.6309 57.7839 11.5114 57.8568 11.3595C57.9316 11.1995 57.9688 11.0272 57.9661 10.8534C57.9661 10.6916 57.9366 10.55 57.8767 10.4276C57.8182 10.306 57.7262 10.1999 57.6096 10.1195C57.4906 10.0361 57.3445 9.97635 57.1722 9.93931C56.9989 9.90258 56.7283 9.88422 56.3607 9.88422H54.6497L54.5496 11.9979ZM54.7353 7.89536H55.8886C56.2672 7.89536 56.5368 7.88696 56.6963 7.86984C56.8547 7.85293 57.011 7.82218 57.1629 7.77802C57.3122 7.73512 57.4476 7.65953 57.557 7.55797C57.668 7.45495 57.7464 7.3401 57.7925 7.21311C57.8386 7.08613 57.8616 6.95883 57.8616 6.83122C57.8616 6.65038 57.8138 6.48885 57.7196 6.34692C57.625 6.20499 57.472 6.09979 57.2616 6.03132C57.0508 5.96284 56.7293 5.92829 56.2964 5.92829H54.8371L54.7353 7.89536ZM63.694 14.0091C63.8292 12.7464 63.9285 11.6897 63.9908 10.8382C64.0527 9.98693 64.1149 8.85555 64.1775 7.44406C64.2401 6.03256 64.2707 5.09665 64.2707 4.63694L64.2628 3.99111C65.5381 4.00107 67.0806 4.00574 68.892 4.00574C70.5614 4.00574 72.0345 4.00107 73.3098 3.99111L73.2937 4.23232C73.2882 4.29084 73.2748 4.5031 73.2534 4.86882L73.2043 5.66623C73.1935 5.83921 73.1881 6.01244 73.1881 6.18569C72.1452 6.14648 71.2694 6.12687 70.5607 6.12687C69.7823 6.12687 69.2572 6.12811 68.9838 6.13029C68.7112 6.13309 68.2855 6.14368 67.7071 6.16328L67.6091 7.85117C68.3522 7.86693 69.0954 7.8743 69.8387 7.87326C70.1416 7.87326 70.9476 7.85615 72.2549 7.8216C72.202 8.44813 72.15 9.19419 72.1012 10.0601C71.3828 10.0516 70.6644 10.0467 69.9459 10.0454C69.2005 10.0454 68.3656 10.0626 67.4424 10.0968L67.3457 11.8802H68.2779C68.5533 11.8802 69.1228 11.8728 69.9872 11.8581L71.6649 11.8214C71.9135 11.817 72.3292 11.7971 72.9127 11.7629C72.8461 12.5108 72.7919 13.2595 72.7501 14.0088C71.4317 13.9989 69.9851 13.9939 68.4124 13.9939L64.8449 14.0011L63.694 14.0091ZM75.4624 14.0091C75.5652 13.1476 75.6463 12.3723 75.7061 11.6826C75.766 10.9926 75.8169 10.1927 75.8605 9.28258C75.9035 8.3725 75.9358 7.41231 75.9578 6.40201C75.9795 5.39171 75.9902 4.58807 75.9902 3.99111C76.6658 4.00574 77.2119 4.01321 77.6283 4.01321C78.0608 4.01321 78.588 4.002 79.2093 3.9799C79.8306 3.95812 80.4362 3.94691 81.0252 3.94691C81.717 3.94691 82.3335 3.9715 82.8734 4.02036C83.2791 4.05491 83.6477 4.12588 83.9802 4.23357C84.3128 4.34126 84.592 4.47198 84.8189 4.62605C85.036 4.77149 85.2273 4.94603 85.3863 5.14365C85.5372 5.33444 85.6548 5.55854 85.7387 5.81531C85.8226 6.07209 85.8649 6.34723 85.8649 6.64073C85.8649 6.96847 85.8185 7.27567 85.7267 7.56171C85.6345 7.84774 85.4901 8.11697 85.2927 8.36908C85.0954 8.62118 84.8468 8.83875 84.5466 9.02207C84.2471 9.20539 83.8266 9.39276 83.286 9.58355L83.7079 10.5157C83.8269 10.775 83.9531 11.0396 84.0886 11.3085L85.1751 13.4589C85.2236 13.5516 85.3103 13.7352 85.4344 14.0095C84.835 14.0018 84.2355 13.9968 83.6361 13.9945C83.2472 13.9945 82.61 13.9995 81.7239 14.0095C81.6372 13.7552 81.4801 13.283 81.2532 12.5927C81.1834 12.3675 81.1047 12.1448 81.0173 11.9247C80.8876 11.5774 80.6947 11.0906 80.441 10.4644L79.6047 8.38744C79.897 8.43631 80.1831 8.46089 80.4644 8.46089C80.8584 8.46089 81.2171 8.40705 81.5382 8.29936C81.8601 8.19167 82.1032 8.02546 82.2682 7.80012C82.4329 7.57509 82.5154 7.33792 82.5154 7.08799C82.5154 6.8779 82.4529 6.69302 82.3294 6.53398C82.2046 6.37493 82.0089 6.25635 81.7411 6.17791C81.4739 6.09948 81.0613 6.06026 80.5046 6.06026C80.3151 6.06026 80.1191 6.064 79.9163 6.07147C79.7134 6.07863 79.4779 6.08485 79.2069 6.08983C79.1378 7.09297 79.0766 8.31616 79.0236 9.75941C78.9705 11.1755 78.9358 12.592 78.9194 14.0088C78.3323 14.0014 77.7451 13.9964 77.1579 13.9939C76.845 13.9942 76.279 13.9992 75.4624 14.0091ZM87.8462 13.8548C87.7757 12.8124 87.6945 11.9786 87.6031 11.352C88.2096 11.597 88.7495 11.7669 89.2236 11.8625C89.6964 11.9577 90.1128 12.005 90.4701 12.005C90.9415 12.005 91.3163 11.9425 91.5948 11.818C91.8737 11.6932 92.0133 11.5086 92.0133 11.2637C92.0133 11.1806 91.9999 11.1012 91.9731 11.0252C91.9456 10.9496 91.894 10.8637 91.8187 10.7685C91.7427 10.6729 91.6347 10.569 91.4938 10.4566L89.966 9.25301C89.6088 8.97912 89.3595 8.78054 89.2185 8.65853C88.9317 8.40923 88.7082 8.17673 88.5483 7.96135C88.3891 7.74596 88.2722 7.52716 88.199 7.30462C88.1257 7.08208 88.0896 6.84584 88.0896 6.59623C88.0896 6.29805 88.1474 6.00548 88.2643 5.71914C88.3798 5.43279 88.5545 5.16512 88.787 4.9155C89.0194 4.66589 89.3275 4.4505 89.7116 4.26967C90.0978 4.08767 90.5135 3.96254 90.9432 3.89898C91.3909 3.83229 91.844 3.79918 92.2977 3.8C93.2103 3.8 94.2057 3.89555 95.2816 4.08635C95.2978 4.42374 95.3167 4.73343 95.338 5.01448C95.3597 5.29585 95.4106 5.78886 95.4917 6.4932C94.9942 6.31237 94.5406 6.18632 94.1297 6.11535C93.7188 6.04439 93.3653 6.00891 93.0679 6.00891C92.6453 6.00891 92.2956 6.07987 92.0174 6.2218C91.7386 6.36373 91.5997 6.53989 91.5997 6.75029C91.5997 6.84802 91.6213 6.94358 91.6647 7.03633C91.7076 7.12939 91.7888 7.23801 91.9084 7.36282C92.0267 7.48763 92.1839 7.62458 92.3778 7.77398C92.6787 8.00035 92.9841 8.22179 93.2938 8.43817L93.878 8.85649C94.0513 8.98379 94.2374 9.13785 94.4375 9.31868C94.624 9.48631 94.7974 9.66539 94.9567 9.85465C95.1025 10.0305 95.2146 10.1923 95.2933 10.3393C95.3714 10.4859 95.4295 10.634 95.4673 10.7831C95.5055 10.9325 95.5244 11.0928 95.5244 11.2637C95.5244 11.7041 95.4075 12.1239 95.175 12.5226C94.9433 12.9214 94.6027 13.2598 94.1858 13.5059C93.7582 13.7634 93.2812 13.9464 92.7794 14.0456C92.2482 14.1501 91.7059 14.2017 91.1623 14.1996C90.2861 14.1999 89.1814 14.0848 87.8462 13.8548ZM97.9846 14.0091L98.1452 12.1302L98.3546 8.46058L98.4433 5.86231C98.4488 5.58344 98.4513 5.30456 98.4513 5.02568C98.4513 4.81528 98.4485 4.47042 98.4433 3.9908C99.1572 4.00542 99.73 4.01289 100.163 4.01289C100.58 4.01289 101.15 4.00169 101.875 3.97959C102.488 3.95961 103.102 3.94861 103.716 3.9466C104.44 3.9466 104.977 3.98831 105.326 4.07141C105.664 4.15027 105.984 4.2833 106.27 4.4642C106.542 4.63415 106.779 4.84662 106.968 5.09167C107.157 5.34107 107.296 5.61783 107.381 5.90993C107.474 6.21588 107.519 6.52775 107.519 6.84584C107.519 7.50133 107.344 8.10047 106.992 8.64391C106.641 9.18703 106.146 9.59289 105.509 9.86243C104.871 10.1313 104.154 10.2661 103.36 10.2661C103.068 10.2661 102.73 10.2365 102.346 10.1777C102.303 9.95269 102.222 9.61779 102.103 9.1724C101.984 8.72732 101.887 8.39709 101.811 8.18171C102.049 8.2259 102.298 8.24769 102.557 8.24769C103.103 8.24769 103.51 8.12911 103.778 7.89194C104.045 7.65477 104.179 7.365 104.179 7.02232C104.179 6.8558 104.149 6.70796 104.09 6.57817C104.031 6.44933 103.932 6.33857 103.806 6.25915C103.678 6.17661 103.531 6.12138 103.376 6.09761C103.199 6.07181 103.02 6.05952 102.841 6.06089C102.646 6.06089 102.444 6.06587 102.233 6.07551L101.552 6.11971C101.477 7.16825 101.423 8.21794 101.391 9.26826C101.321 11.3723 101.287 12.6344 101.287 13.0552V14.0091L99.6719 13.9942C99.4446 13.9942 98.8824 13.9992 97.9846 14.0091ZM116.077 3.80031C116.942 3.80031 117.774 3.90551 118.574 4.11592C119.374 4.32632 120.074 4.66277 120.674 5.12497C121.274 5.58748 121.722 6.1194 122.02 6.72104C122.317 7.32329 122.466 8.0155 122.466 8.79797C122.466 9.62028 122.302 10.3747 121.975 11.062C121.659 11.7362 121.175 12.3352 120.561 12.8124C119.944 13.292 119.209 13.6431 118.355 13.8657C117.488 14.0902 116.59 14.2027 115.688 14.1999C114.774 14.1999 113.898 14.0907 113.06 13.8731C112.223 13.6556 111.494 13.3032 110.875 12.8161C110.256 12.3294 109.817 11.7872 109.557 11.1902C109.299 10.5935 109.168 9.93059 109.168 9.20134C109.168 8.13004 109.443 7.18946 109.992 6.3796C110.54 5.56974 111.354 4.93729 112.433 4.48225C113.51 4.02783 114.725 3.80031 116.077 3.80031ZM115.931 6.00922C115.309 6.00922 114.747 6.14741 114.244 6.42411C113.741 6.7008 113.355 7.08457 113.085 7.57634C112.814 8.06759 112.675 8.60936 112.679 9.15808C112.679 9.67693 112.802 10.1513 113.048 10.5817C113.295 11.0125 113.669 11.3489 114.171 11.5911C114.662 11.8304 115.211 11.9553 115.768 11.9543C116.369 11.9543 116.919 11.8183 117.418 11.5469C117.919 11.2755 118.3 10.8936 118.562 10.4018C118.824 9.91005 118.955 9.39525 118.955 8.85711C118.955 8.33359 118.833 7.85054 118.59 7.40764C118.357 6.97399 117.984 6.6145 117.52 6.37649C117.05 6.13185 116.52 6.00922 115.931 6.00922ZM124.577 14.0091C124.68 13.1476 124.761 12.3723 124.821 11.6826C124.88 10.9926 124.932 10.1927 124.975 9.28258C125.019 8.3725 125.052 7.41231 125.073 6.40201C125.094 5.39171 125.105 4.58807 125.105 3.99111C125.781 4.00574 126.327 4.01321 126.743 4.01321C127.175 4.01321 127.702 4.002 128.324 3.9799C128.946 3.95812 129.551 3.94691 130.14 3.94691C130.831 3.94691 131.448 3.9715 131.989 4.02036C132.394 4.05491 132.763 4.12588 133.095 4.23357C133.427 4.34126 133.707 4.47198 133.934 4.62605C134.151 4.77132 134.343 4.94589 134.501 5.14365C134.652 5.33444 134.77 5.55854 134.854 5.81531C134.938 6.07209 134.979 6.34723 134.979 6.64073C134.979 6.96847 134.933 7.27567 134.842 7.56171C134.75 7.84774 134.605 8.11697 134.408 8.36908C134.21 8.62118 133.962 8.83875 133.662 9.02207C133.361 9.20539 132.941 9.39276 132.401 9.58355L132.822 10.5157C132.941 10.775 133.069 11.0396 133.204 11.3085L134.29 13.4589C134.339 13.5516 134.425 13.7352 134.55 14.0095C133.95 14.0018 133.351 13.9968 132.751 13.9945C132.362 13.9945 131.725 13.9995 130.839 14.0095C130.752 13.7552 130.595 13.283 130.368 12.5927C130.298 12.3675 130.22 12.1447 130.132 11.9247C130.002 11.5774 129.811 11.0906 129.556 10.4644L128.719 8.38744C129.011 8.43631 129.298 8.46089 129.579 8.46089C129.974 8.46089 130.331 8.40705 130.653 8.29936C130.975 8.19167 131.218 8.02546 131.383 7.80012C131.548 7.57509 131.631 7.33792 131.631 7.08799C131.631 6.8779 131.568 6.69302 131.444 6.53398C131.32 6.37493 131.124 6.25635 130.856 6.17791C130.589 6.09948 130.176 6.06026 129.62 6.06026C129.43 6.06026 129.234 6.064 129.031 6.07147C128.829 6.07863 128.592 6.08485 128.322 6.08983C128.252 7.09297 128.192 8.31616 128.138 9.75941C128.085 11.1755 128.051 12.592 128.035 14.0088C127.447 14.0014 126.86 13.9964 126.272 13.9939C125.959 13.9942 125.394 13.9992 124.577 14.0091ZM139.523 14.0091C139.792 11.6309 139.953 9.01366 140.007 6.15613L136.556 6.23705L136.596 5.42221C136.618 4.98709 136.634 4.50995 136.645 3.99111C138.18 4.00107 139.969 4.00605 142.011 4.00605L144.013 3.99858H145.958L147.011 3.99111L146.963 4.70977C146.944 5.02844 146.93 5.34728 146.919 5.66623C146.911 5.91833 146.906 6.10851 146.906 6.23674C145.75 6.18289 144.798 6.15581 144.047 6.15581H143.48C143.404 6.95345 143.341 7.75209 143.292 8.55147C143.234 9.57041 143.187 10.5899 143.153 11.6098C143.125 12.4092 143.109 13.209 143.105 14.0088C142.532 14.0014 141.959 13.9964 141.386 13.9939C141.155 13.9942 140.534 13.9992 139.523 14.0091Z" fill="#3A4C69"/>
<path d="M148.532 13.7699C148.468 12.736 148.395 11.9093 148.312 11.2884C148.86 11.5306 149.348 11.6994 149.777 11.7942C150.205 11.8889 150.581 11.9358 150.904 11.9358C151.329 11.9358 151.669 11.8741 151.921 11.7503C152.173 11.6266 152.299 11.4436 152.299 11.2007C152.299 11.1186 152.286 11.0396 152.262 10.9643C152.238 10.8896 152.191 10.8042 152.123 10.7097C152.054 10.615 151.956 10.5119 151.829 10.4002L150.448 9.20711C150.125 8.93554 149.9 8.73896 149.773 8.61767C149.513 8.37017 149.311 8.14026 149.167 7.92639C149.029 7.72666 148.922 7.50719 148.851 7.27554C148.784 7.04739 148.75 6.81081 148.752 6.57315C148.752 6.27751 148.804 5.98773 148.909 5.70381C149.019 5.41274 149.179 5.14302 149.382 4.90699C149.592 4.65948 149.871 4.44624 150.218 4.26694C150.567 4.08647 150.943 3.9623 151.332 3.89908C151.736 3.83294 152.146 3.80011 152.556 3.80094C153.381 3.80094 154.281 3.89599 155.253 4.08517C155.268 4.41939 155.284 4.72676 155.304 5.00543C155.324 5.2841 155.37 5.77294 155.443 6.47162C154.994 6.29232 154.583 6.16734 154.212 6.09697C153.841 6.02661 153.52 5.99112 153.252 5.99112C152.871 5.99112 152.554 6.06148 152.303 6.20283C152.051 6.34324 151.925 6.51791 151.925 6.72622C151.925 6.82343 151.945 6.91787 151.984 7.00983C152.023 7.10241 152.096 7.20981 152.203 7.33387C152.311 7.45793 152.453 7.59372 152.629 7.74154C152.805 7.88936 153.08 8.10878 153.457 8.3998L153.984 8.81487C154.14 8.9414 154.309 9.09355 154.49 9.27316C154.659 9.43897 154.816 9.61657 154.959 9.80458C155.091 9.97925 155.192 10.1394 155.263 10.2851C155.334 10.4307 155.387 10.577 155.421 10.7251C155.455 10.8733 155.472 11.0322 155.472 11.2016C155.472 11.6372 155.364 12.0662 155.157 12.4503C154.947 12.8452 154.639 13.1807 154.263 13.4251C153.876 13.6803 153.445 13.8616 152.991 13.96C152.511 14.0636 152.021 14.1148 151.529 14.1127C150.738 14.1121 149.738 13.9979 148.532 13.7699ZM166.329 11.4994C166.251 11.8957 166.18 12.2935 166.117 12.6925C166.034 13.203 165.977 13.5983 165.948 13.8791C164.903 14.0343 163.969 14.1121 163.148 14.1121C162.357 14.1121 161.62 14.014 160.939 13.8171C160.256 13.6196 159.618 13.2909 159.062 12.8496C158.494 12.4006 158.086 11.8732 157.842 11.2668C157.598 10.66 157.476 9.9811 157.476 9.22872C157.476 8.35104 157.641 7.56162 157.971 6.86016C158.301 6.15931 158.774 5.5745 159.392 5.10635C160.01 4.63819 160.688 4.30335 161.426 4.10214C162.171 3.89971 162.94 3.79808 163.712 3.80001C164.435 3.80001 165.33 3.8926 166.395 4.07683L166.41 4.68757C166.419 4.95451 166.434 5.248 166.453 5.56833L166.505 6.39787C165.933 6.26208 165.471 6.16981 165.116 6.12135C164.79 6.07472 164.46 6.05038 164.13 6.04852C163.471 6.04852 162.877 6.17937 162.35 6.44138C161.832 6.69453 161.399 7.09138 161.104 7.58384C160.8 8.08348 160.649 8.6365 160.649 9.24291C160.649 9.79593 160.776 10.27 161.03 10.6656C161.284 11.0609 161.628 11.3664 162.06 11.5821C162.493 11.7985 163.026 11.9062 163.661 11.9062C164.008 11.9062 164.385 11.8781 164.794 11.8226C165.202 11.7676 165.714 11.6596 166.329 11.4994ZM174.533 3.80032C175.315 3.80032 176.067 3.90494 176.79 4.11356C177.513 4.32218 178.146 4.65547 178.688 5.11406C179.231 5.57234 179.636 6.09975 179.905 6.69691C180.174 7.29375 180.308 7.98009 180.308 8.75593C180.308 9.57127 180.16 10.3193 179.865 11.0007C179.579 11.6695 179.141 12.2635 178.586 12.7363C178.029 13.2119 177.364 13.56 176.592 13.781C175.808 14.0034 174.997 14.1148 174.181 14.1121C173.355 14.1121 172.564 14.0038 171.807 13.7881C171.049 13.5724 170.391 13.223 169.832 12.74C169.272 12.2574 168.875 11.7198 168.641 11.1279C168.406 10.5363 168.288 9.87895 168.288 9.15558C168.288 8.09366 168.537 7.16105 169.033 6.35806C169.529 5.55506 170.264 4.92797 171.239 4.4771C172.213 4.02591 173.312 3.80032 174.533 3.80032ZM174.401 5.9905C173.839 5.9905 173.331 6.12753 172.877 6.40219C172.423 6.67592 172.073 7.05705 171.829 7.54403C171.584 8.03121 171.459 8.56852 171.462 9.11268C171.462 9.62682 171.573 10.0971 171.795 10.5239C172.018 10.951 172.357 11.2847 172.811 11.5244C173.254 11.762 173.751 11.8858 174.255 11.8849C174.797 11.8849 175.294 11.75 175.746 11.4806C176.198 11.2118 176.543 10.8332 176.78 10.3453C177.014 9.86821 177.135 9.34435 177.135 8.81364C177.135 8.29456 177.025 7.81591 176.805 7.37677C176.594 6.94699 176.257 6.59054 175.838 6.35404C175.412 6.1121 174.934 5.9905 174.401 5.9905ZM182.216 13.9226C182.309 13.0684 182.383 12.2997 182.437 11.6155C182.491 10.9316 182.538 10.1385 182.576 9.23581C182.616 8.33345 182.645 7.3817 182.665 6.37966C182.685 5.37823 182.694 4.5811 182.694 3.98919C183.305 4.004 183.799 4.01141 184.174 4.01141C184.565 4.01141 185.042 3.99999 185.604 3.97839C186.166 3.95679 186.712 3.94568 187.245 3.94568C187.87 3.94568 188.427 3.97037 188.916 4.0182C189.282 4.05276 189.616 4.12313 189.916 4.2299C190.216 4.33668 190.469 4.46661 190.675 4.61875C190.871 4.76299 191.044 4.93616 191.187 5.13227C191.324 5.32145 191.43 5.54303 191.506 5.79793C191.582 6.05253 191.619 6.32534 191.619 6.61636C191.619 6.94132 191.577 7.24561 191.495 7.52983C191.41 7.81659 191.278 8.08719 191.103 8.33036C190.919 8.58496 190.691 8.80442 190.428 8.97813C190.157 9.1599 189.777 9.34506 189.289 9.53454L189.67 10.4591C189.777 10.7162 189.893 10.9782 190.014 11.2448L190.997 13.377C191.04 13.469 191.119 13.651 191.231 13.9229C190.689 13.9153 190.147 13.9104 189.605 13.9081C189.253 13.9081 188.678 13.9131 187.877 13.9229C187.799 13.6708 187.657 13.2026 187.451 12.5182C187.388 12.2949 187.317 12.0739 187.238 11.8559C187.12 11.5118 186.947 11.0288 186.717 10.4082L185.961 8.34888C186.225 8.39702 186.484 8.42171 186.738 8.42171C187.095 8.42171 187.418 8.36801 187.709 8.26123C188 8.15445 188.22 7.98966 188.368 7.76654C188.518 7.54311 188.592 7.30795 188.592 7.06044C188.592 6.85183 188.536 6.66851 188.424 6.51143C188.311 6.35343 188.135 6.23585 187.893 6.15808C187.651 6.08062 187.277 6.04173 186.775 6.04173C186.604 6.04173 186.426 6.04513 186.243 6.05254C186.06 6.05963 185.846 6.0658 185.602 6.07074C185.539 7.06538 185.484 8.27821 185.436 9.70922C185.388 11.1133 185.357 12.5178 185.342 13.9226C184.811 13.9152 184.28 13.9103 183.749 13.9078C183.467 13.9078 182.955 13.9127 182.216 13.9226ZM193.491 13.9226C193.614 12.6706 193.703 11.6232 193.76 10.7788C193.816 9.9345 193.872 8.81302 193.928 7.41318C193.985 6.01365 194.013 5.08567 194.013 4.62986L194.006 3.98919C195.159 3.99907 196.553 4.004 198.19 4.004C199.7 4.004 201.03 3.99907 202.183 3.98919L202.169 4.22867C202.164 4.28669 202.152 4.49685 202.132 4.85946L202.088 5.65011C202.078 5.82173 202.073 5.99359 202.073 6.16548C201.131 6.1266 200.339 6.10716 199.699 6.10716C198.995 6.10716 198.52 6.1087 198.274 6.11055C198.026 6.11364 197.642 6.12444 197.119 6.14327L197.03 7.81715C197.607 7.83196 198.279 7.83906 199.046 7.83906C199.319 7.83906 200.048 7.82178 201.23 7.78814C201.174 8.5272 201.127 9.267 201.091 10.0073C200.442 9.999 199.793 9.99427 199.143 9.99313C198.388 9.99479 197.634 10.0117 196.88 10.0437L196.793 11.8121H197.635C197.884 11.8121 198.399 11.8047 199.181 11.7898L200.696 11.7537C200.921 11.7491 201.297 11.7297 201.824 11.6957C201.764 12.4372 201.715 13.1796 201.678 13.9226C200.485 13.9127 199.179 13.9078 197.757 13.9078L194.532 13.9152L193.491 13.9226Z" fill="#3A4C69"/>
<path fill-rule="evenodd" clip-rule="evenodd" d="M16.121 1.981C15.742 2.01701 15.408 2.06036 15.074 2.07869C13.291 2.18004 11.5077 2.27061 9.72505 2.37283C7.83009 2.48173 5.93425 2.58524 4.04124 2.71808C3.0699 2.78622 2.31695 3.56621 2.30914 4.54611C2.28745 7.29688 2.28745 10.0468 2.31044 12.7976C2.31868 13.7617 3.10937 14.5596 4.05707 14.6176C7.46554 14.8255 10.8744 15.0174 14.2836 15.2167C14.8858 15.2525 15.4869 15.2939 16.1651 15.3377C15.912 15.8804 15.5249 16.1302 15.0445 16.1582C14.3545 16.1987 13.6585 16.1806 12.9663 16.1526C11.0544 16.0762 9.1432 15.9829 7.23154 15.8953C5.4771 15.8149 3.72202 15.742 1.96758 15.651C0.868724 15.5932 0.0765165 14.7114 0.0736972 13.5426C0.0665407 10.6506 0.0704443 7.75966 0.0704443 4.86785C0.0704443 4.4868 0.0643721 4.10619 0.0732635 3.72579C0.101239 2.51774 0.937253 1.71597 2.15452 1.66896C4.91629 1.56265 7.67676 1.44038 10.437 1.31574C11.7955 1.25471 13.1515 1.17017 14.5097 1.10419C15.2748 1.06666 15.8851 1.38366 16.121 1.981ZM16.8304 0.803792C18.1455 0.643568 20.3271 1.69462 20.338 3.56212C20.3571 6.9622 20.3675 10.3636 20.3317 13.7626C20.3176 15.0647 19.476 15.839 18.3298 16.2925C17.8948 16.4646 17.416 16.5254 16.9317 16.5832C17.9306 15.6827 18.0893 14.5271 18.0906 13.319C18.0934 10.1585 18.1002 6.998 18.083 3.83728C18.08 3.3359 17.9948 2.82633 17.8796 2.33682C17.7386 1.73862 17.4673 1.19411 16.8304 0.803792Z" fill="#3A4C69"/>
<path fill-rule="evenodd" clip-rule="evenodd" d="M11.7816 7.33566C11.7816 7.39504 11.7699 7.45384 11.747 7.5087C11.7242 7.56356 11.6907 7.61342 11.6485 7.65541C11.6063 7.69741 11.5562 7.73072 11.501 7.75345C11.4459 7.77618 11.3867 7.78787 11.327 7.78787H8.57198C8.51226 7.7879 8.45312 7.77622 8.39795 7.75351C8.34277 7.73079 8.29264 7.69748 8.25043 7.65548C8.20821 7.61348 8.17473 7.56361 8.15191 7.50874C8.12909 7.45386 8.11737 7.39505 8.11743 7.33566V5.48995C8.11743 5.24002 8.32063 5.03753 8.57198 5.03753L11.3413 4.87558C11.5927 4.87558 11.7961 5.07742 11.7961 5.32757L11.7816 7.33566ZM11.7963 11.9548C11.7963 12.0142 11.7846 12.073 11.7617 12.1278C11.7389 12.1827 11.7053 12.2325 11.6631 12.2745C11.6209 12.3165 11.5708 12.3497 11.5156 12.3724C11.4604 12.3951 11.4013 12.4068 11.3416 12.4068L8.5722 12.3078C8.51248 12.3078 8.45334 12.2962 8.39816 12.2734C8.34299 12.2507 8.29286 12.2174 8.25064 12.1754C8.20842 12.1334 8.17495 12.0835 8.15213 12.0287C8.12931 11.9738 8.11759 11.915 8.11765 11.8556V10.0099C8.11765 9.75974 8.32085 9.55768 8.5722 9.55768L11.3416 9.61331C11.5929 9.61331 11.7963 9.81516 11.7963 10.0651V11.9548Z" fill="#3A4C69"/>
</svg>
